<svg id="Layer_1" data-name="Layer 1" xmlns="http://www.w3.org/2000/svg" viewBox="0 0 181.04 220.62"><title>logo_mk</title><path d="M126.92,215.36C97.83,212,75.26,187.5,66.17,160.84c-5.45-16-5.71-34.27,7.39-46.61,11.67-11,29.58-15.06,45.09-11.9,18,3.68,32.92,18.49,33,37.48l3-.4c-3.21-22.36-2.6-52.33,21.44-63.23,19.59-8.87,43.19.29,54,18.16,11.77,19.49,9.17,43.51-1.21,62.91-10.84,20.26-27.49,36.67-39.94,55.88C175,234.61,165.46,259.7,170,285.58c.33,1.9,3.22,1.1,2.89-.79-5-28.9,8.28-56.2,24.73-79.07,14.27-19.84,32.61-38,40.16-61.81,6.21-19.58,3.29-42.78-10.56-58.52-12.69-14.43-35-19.9-52.64-11.8-25.32,11.61-26.22,42.93-22.82,66.62.24,1.69,2.95,1.25,2.94-.4-.08-16.62-10.95-31.19-26.07-37.56-15.67-6.59-34.84-4.78-49.34,4C46.33,126,60.85,169.4,81.3,193c11.77,13.6,27.59,23.28,45.62,25.34,1.91.22,1.9-2.79,0-3Z" transform="translate(-59.8 -69.84)"/><path d="M127.11,218.68c18,5.37,37.07,3.24,55.19,7.88,1.87.48,2.67-2.41.8-2.89-18.12-4.64-37.22-2.52-55.19-7.88-1.86-.55-2.65,2.34-.8,2.89Z" transform="translate(-59.8 -69.84)"/><path d="M116.22,226.8C149.37,197,193.92,186.36,237.4,184c1.92-.1,1.93-3.1,0-3-44.32,2.41-89.53,13.29-123.3,43.69-1.44,1.29.69,3.41,2.12,2.12Z" transform="translate(-59.8 -69.84)"/><path d="M80.76,142.28a532.37,532.37,0,0,1,62.64,62.09c1.26,1.47,3.37-.66,2.13-2.12a533.9,533.9,0,0,0-62.64-62.09c-1.47-1.24-3.61.88-2.13,2.12Z" transform="translate(-59.8 -69.84)"/><path d="M82.66,140.1a435,435,0,0,1,69.19,3.61c1.91.25,1.89-2.75,0-3a435,435,0,0,0-69.19-3.61c-1.93.05-1.93,3.05,0,3Z" transform="translate(-59.8 -69.84)"/><path d="M154.93,143.48a198.94,198.94,0,0,1,37.64-50.19c1.39-1.35-.73-3.47-2.12-2.12A201.07,201.07,0,0,0,152.34,142c-.9,1.7,1.69,3.22,2.59,1.51Z" transform="translate(-59.8 -69.84)"/><path d="M190,91.61q1.19,48.26.5,96.51a1.5,1.5,0,0,0,3,0q.67-48.26-.5-96.51c0-1.92-3-1.93-3,0Z" transform="translate(-59.8 -69.84)"/><path d="M81,139.67a24.77,24.77,0,0,1,3-12H81.36c.65,1.12-2.9,6.71-3.43,8.09a20.27,20.27,0,0,0-1.5,8.1,1.51,1.51,0,0,0,2.95.4l.82-2.65c.57-1.85-2.33-2.64-2.9-.79l-.82,2.64,3,.4c-.13-4.27,1.61-7.93,3.38-11.71.89-1.91,2.32-4,1.14-6a1.51,1.51,0,0,0-2.59,0A28.11,28.11,0,0,0,78,139.67a1.5,1.5,0,0,0,3,0Z" transform="translate(-59.8 -69.84)"/><path d="M75.06,141.65A61.88,61.88,0,0,1,80,131.08l-2.59-1.51c-1.74,4-3.6,7.94-5.59,11.83a1.5,1.5,0,0,0,2.59,1.51,148.35,148.35,0,0,1,10.87-15.24l-2.51-1.46a82.76,82.76,0,0,1-5.43,12.53,1.5,1.5,0,0,0,2.59,1.52A63.19,63.19,0,0,1,87,130.51l-2.36-1.82a102.05,102.05,0,0,1-5.66,11.07l2.59,1.51a77.42,77.42,0,0,1,8.66-13.94c1-1.37-1.23-3.09-2.35-1.82L76,138.9l2.35,1.81L90.45,123c1-1.42-1.18-3-2.35-1.82L76.79,132.79l2.36,1.82,10.92-16.46c.93-1.41-1.24-3.11-2.36-1.82q-7.14,8.27-13.57,17.11L76.73,135c2.87-6.36,6.72-12.1,10.69-17.83,1-1.38-1.29-3.15-2.36-1.82-3.47,4.32-6.8,8.73-10,13.27l2.74.36c-.22-1.14,3.3-5.14,3.85-6l4.86-7.26c.93-1.4-1.27-3.14-2.36-1.82L72.81,127.67l2.36,1.81a85.23,85.23,0,0,1,6.33-9.94c1-1.36-1.28-3.13-2.36-1.82l-6.36,7.76,2.36,1.81A97.23,97.23,0,0,1,82,116.44l-2.59-1.51a104.78,104.78,0,0,1-7.86,10.2l2.36,1.81a92.94,92.94,0,0,1,5.52-10.2c.88-1.42-1.25-3.14-2.36-1.82L70,123.41l2.36,1.82,4.76-7.29a1.51,1.51,0,0,0-2.36-1.82l-6.27,6.77,2.36,1.82c1.4-2.63,2.91-5.16,4.56-7.65.93-1.4-1.23-3.1-2.36-1.82l-4.49,5.13,2.36,1.81,2.5-4.26c.85-1.43-1.2-3.12-2.35-1.82l-2.17,2.47,2.5,1.45a8.3,8.3,0,0,1,2.76-4.29c1.39-1.35-.73-3.47-2.12-2.12a13.64,13.64,0,0,0-3.53,5.62A1.51,1.51,0,0,0,71,120.69l2.17-2.46-2.36-1.82-2.5,4.26c-.85,1.43,1.2,3.13,2.35,1.82l4.5-5.12-2.36-1.82c-1.65,2.48-3.16,5-4.56,7.64-.78,1.46,1.15,3.12,2.35,1.82l6.27-6.77-2.35-1.82-4.76,7.29c-.92,1.41,1.25,3.14,2.35,1.82L79.2,117l-2.35-1.82a92.18,92.18,0,0,0-5.52,10.21c-.66,1.43,1.15,3.2,2.35,1.82A110.18,110.18,0,0,0,82,116.44c1.09-1.62-1.47-3-2.59-1.51a97.23,97.23,0,0,0-6.87,10.85c-.78,1.43,1.23,3.19,2.35,1.82l6.36-7.76L78.91,118A84.4,84.4,0,0,0,72.58,128c-.78,1.43,1.23,3.18,2.35,1.82L86.3,116,84,114.19l-7,10.48c-1.2,1.8-2.41,2.93-2,5.06.28,1.37,2.07,1.32,2.74.35q4.54-6.5,9.5-12.65l-2.35-1.82c-4,5.72-7.82,11.46-10.69,17.83A1.5,1.5,0,0,0,76.73,135q6.21-8.52,13.11-16.5l-2.36-1.82L76.56,133.1c-1,1.43,1.18,3,2.35,1.82l11.31-11.64-2.36-1.82L75.71,139.2c-.95,1.4,1.23,3.09,2.36,1.82L90,127.63l-2.36-1.82a77.85,77.85,0,0,0-8.66,13.95c-.77,1.72,1.59,3.21,2.59,1.51a102.83,102.83,0,0,0,5.66-11.06c.63-1.43-1.13-3.22-2.35-1.82a67.55,67.55,0,0,0-7.53,10.35l2.59,1.52A89.26,89.26,0,0,0,85.64,127a1.51,1.51,0,0,0-2.51-1.46A152.69,152.69,0,0,0,71.79,141.4l2.59,1.51q3-5.82,5.59-11.83c.74-1.72-1.6-3.23-2.59-1.51a65.12,65.12,0,0,0-5.21,11.28c-.65,1.82,2.25,2.61,2.89.8Z" transform="translate(-59.8 -69.84)"/><path d="M67.05,127.33a29.29,29.29,0,0,1,1.92-4.9,1.5,1.5,0,0,0-2.59-1.51,32.52,32.52,0,0,0-5.06,12.2c-.3,1.56,1.93,2.77,2.74,1.15a74.55,74.55,0,0,1,9.21-13.93l-2.51-1.46a83.69,83.69,0,0,1-5,13.44l2.74,1.16a119.27,119.27,0,0,1,7.68-15.28l-2.74-1.15c-1.64,5.34-4.87,10.43-7.35,15.43A1.5,1.5,0,0,0,68.71,134l9.8-13.73-2.75-1.16A129.3,129.3,0,0,1,69.26,135a1.5,1.5,0,0,0,2.59,1.51q3.57-5.78,7.64-11.18l-2.74-1.16-5.22,15.87,2.89.8a11.45,11.45,0,0,0-.51-6.21,1.52,1.52,0,0,0-2.74-.35A39.82,39.82,0,0,0,66,145.51h2.89c-1.21-5,.53-11.47,1.1-16.56.19-1.67-2.66-2.06-3-.4l-2.72,15.67H67.2a42.27,42.27,0,0,1-1.27-8.88c-.06-1.62-2.59-2.13-3-.4a53.68,53.68,0,0,0-1,7.68l2.94-.4a15.59,15.59,0,0,1,1-11.94l-2.79-.76.53,8.42c.1,1.57,2.7,2.17,2.95.4A108.41,108.41,0,0,1,68.76,127H65.87a53.35,53.35,0,0,1,1.26,9.08l2.94-.4a15.73,15.73,0,0,1-.43-5.89l-2.79.75a20.09,20.09,0,0,1,2.84,7.66c.28,1.75,2.85,1.2,3-.39.13-2.27.17-4.53.13-6.8a1.5,1.5,0,0,0-3,0,17.66,17.66,0,0,1-.7,4.46l2.94.4a25.41,25.41,0,0,1,.24-6.79L70,130a6.7,6.7,0,0,0,6.32,1c4.45-1.23,8.32-3.12,13-3.72l-.4-2.95-8.36,2.56a1.5,1.5,0,0,0,.4,2.94,159,159,0,0,0,20.69-1.17l-.4-2.95c-4,1.12-8,2.06-12.1,2.83-1.64.31-1.29,3.17.39,2.95,6.48-.83,13-1.4,19.48-1.69l-.4-2.94-21.16,3.63.8,2.89c6.3-1.94,12.76-2.66,19.31-3.25a1.5,1.5,0,0,0,0-3L91.56,125.8l1.5,1.5c0-1.08,12-3.36,13.58-4s1.44-3-.4-3A65.23,65.23,0,0,0,99,121c-1.2.18-5.62,1.76-6.57,1l-.3,2.35a59.53,59.53,0,0,1,10.8-4.7l-1.16-2.74a145.35,145.35,0,0,1-16.46,7.39l1.9,1.45c.14-2.39,8.54-6.43,10.51-7.5l-1.52-2.59Q89.7,120.1,82.82,124l1.82,2.36A119.66,119.66,0,0,1,99,115.14a1.5,1.5,0,0,0-1.52-2.59c-1,.56-8.65,5.4-9.36,4.87l.3,2.35a74.63,74.63,0,0,1,8.5-7.79c1.32-1-.46-3.38-1.82-2.35q-6.74,5.1-13.69,9.89l1.82,2.35a119.42,119.42,0,0,1,13.91-10l-1.52-2.59q-6.37,4.36-13,8.41L84.49,120a44.45,44.45,0,0,1,7.43-7.27c1.49-1.14.12-3.69-1.52-2.59l-14.49,9.79,1.52,2.59L93,112a1.5,1.5,0,0,0-1.52-2.59l-13,6.06,1.82,2.35a42.75,42.75,0,0,1,5.6-4.52c1.58-1.07.16-3.6-1.52-2.59l-9.21,5.52L77,118.54c3.5-2.74,7.09-5.32,10.79-7.78a1.5,1.5,0,0,0-1.52-2.59l-9.72,5.5L78.33,116l9-7.15c1.34-1.07-.39-3.25-1.82-2.36l-11.24,7.1L76.05,116a43.08,43.08,0,0,1,9.46-6.58c1.74-1,.21-3.33-1.51-2.59a76.73,76.73,0,0,0-8.16,4.09c-1.68,1-.2,3.45,1.52,2.59a39.61,39.61,0,0,1,17.24-4.22L93.31,107a8.07,8.07,0,0,1-4,3.1c-.93.39-1.63,1.7-.67,2.51,3.54,2.94,8.44,4.38,12.63,6.23l1.15-2.74A38.75,38.75,0,0,1,91.61,113l-.75,2.79,7.53-.67c1.61-.15,2.13-2.48.4-3-3-.8-5.92-1.47-8.93-2l.9,2.2,2.95-2.48c1.5-.54,1.4-3.06-.39-3a67.93,67.93,0,0,0-11,1.58l1.15,2.74a11,11,0,0,1,6.67-1.63l-.4-2.95-4.9,2a1.54,1.54,0,0,0-.89,2.21,4.25,4.25,0,0,0,1.93,2.29c1.15.87,2.42-.56,2.2-1.69L87.79,110l-2.21,1.7,1.74.74,1.16-2.74-2.84-1,2.76-.89a11.15,11.15,0,0,1,6.43.8,15.49,15.49,0,0,1,7,6.35,24.93,24.93,0,0,1,1.44,2.7l1,2.47L99,119.42l2.37.23q-5.68-.08-1.43,1.42c.86,1.14,1.59,1.33,2.19.56q1.86-1.6-2.36,1.48l1.1,1.45-.08-1.19-1.1,1.45c2.22-.77,4.43-1.66,6.44.38l-.23-1.82-2.63,2.51,2,.54c-2.14-3.63,9.56-.34,6.66-2.3,1.61,1.08,3.11-1.51,1.52-2.59-3.89-2.65-14,.9-10.77,6.41a1.52,1.52,0,0,0,2.05.53,8.8,8.8,0,0,0,3.71-3.59,1.53,1.53,0,0,0-.24-1.82c-2.74-2.76-5.87-2.35-9.36-1.14a1.53,1.53,0,0,0-1.1,1.44l.08,1.19A1.54,1.54,0,0,0,99,126c2.32.76,5,1,6.76-1,1.89-2.22,1.05-4.34-1.13-5.87-4.41-3.08-12.3.34-9.7,6.34,1.83,4.23,9.17,4.07,10.27-.63,1.18-5.08-5.17-9.71-9.5-6.73-4,2.72-1.83,9.36,3.16,8.48,5.87-1,7.24-9,2.74-12.5-1.66-1.28-3.79-1.83-5.45-.35-2.19,1.94-1,5.11.29,7.23,2.07,3.28,10.4,7.56,11.27,1.11.49-3.65-2.93-8.67-5.07-11.26a16.38,16.38,0,0,0-10.08-6c-2.78-.41-8.05-.19-9.57,2.77-1.67,3.26,2.52,4.35,4.74,5.08,1.59.51,2.73-2.07,1.16-2.75l-1.74-.74a1.52,1.52,0,0,0-2.21,1.69l.29,1.47,2.2-1.7-.85-1.22-.9,2.21,4.9-2c1.48-.6,1.42-2.94-.4-3a13.77,13.77,0,0,0-8.18,2,1.5,1.5,0,0,0,1.15,2.74,62.93,62.93,0,0,1,10.22-1.47l-.4-3a8,8,0,0,0-4.75,3.87,1.5,1.5,0,0,0,.9,2.2c3,.56,6,1.23,8.92,2l.4-2.94-7.53.67c-1.32.12-2.26,2.12-.76,2.8A41.45,41.45,0,0,0,101.6,119c1.49.21,2.87-2,1.15-2.74-3.78-1.67-8.83-3.11-12-5.76L90.07,113a13.13,13.13,0,0,0,5.83-4.49c.7-.92-.26-2.27-1.3-2.25a43.27,43.27,0,0,0-18.76,4.63l1.52,2.59a77.54,77.54,0,0,1,8.15-4.09L84,106.79a46,46,0,0,0-10.08,7,1.51,1.51,0,0,0,1.82,2.36L87,109.11l-1.82-2.36-9,7.15c-1.36,1.09.38,3.17,1.82,2.36l9.73-5.5-1.52-2.59c-3.91,2.6-7.69,5.35-11.39,8.25-1.35,1.06.39,3.21,1.82,2.36l9.22-5.52-1.52-2.59a47.12,47.12,0,0,0-6.21,5c-1.3,1.24.35,3,1.82,2.36L93,112l-1.52-2.59L75.91,119.94c-1.58,1.08-.09,3.67,1.52,2.59l14.49-9.79-1.52-2.59a47.82,47.82,0,0,0-8,7.74c-1,1.24.26,3.31,1.82,2.36q6.59-4.05,13-8.41c1.58-1.08.12-3.64-1.52-2.59a125.65,125.65,0,0,0-14.51,10.5c-1.27,1.11.41,3.33,1.82,2.36q7-4.8,13.69-9.89l-1.82-2.36a74.63,74.63,0,0,0-8.5,7.79,1.53,1.53,0,0,0,.3,2.36l.72.53a1.48,1.48,0,0,0,1.52,0L99,115.14l-1.52-2.59a124.24,124.24,0,0,0-15,11.66,1.5,1.5,0,0,0,1.82,2.35q6.87-3.87,13.36-8.37a1.5,1.5,0,0,0-1.52-2.59c-3.6,2-11.72,5.35-12,10.09a1.5,1.5,0,0,0,1.9,1.44,150.81,150.81,0,0,0,17.18-7.69,1.51,1.51,0,0,0-1.16-2.74,62.91,62.91,0,0,0-11.52,5,1.51,1.51,0,0,0-.3,2.36,3.84,3.84,0,0,0,3.57,1c4.17-.43,8.13-1.51,12.38-1.67l-.4-2.95c-4.89,2-10.27,2.24-15,4.72a1.49,1.49,0,0,0-.75,1.29l0,.89a1.53,1.53,0,0,0,1.5,1.5l16.06,1.37v-3c-6.81.62-13.55,1.33-20.11,3.36a1.5,1.5,0,0,0,.8,2.89l21.16-3.63c1.66-.29,1.27-3-.4-2.95-6.52.29-13,.86-19.48,1.69l.4,2.95c4.09-.78,8.1-1.72,12.11-2.84,1.56-.44,1.33-3.16-.4-2.94A159,159,0,0,1,81,126.87l.4,2.95,8.36-2.55c1.54-.47,1.35-3.17-.4-3a45.85,45.85,0,0,0-7.7,1.54c-2.91.89-7.1,3.83-10.11,1.57a1.51,1.51,0,0,0-2.21.89,30.15,30.15,0,0,0-.34,7.59c.14,1.59,2.52,2.15,2.95.4a31.26,31.26,0,0,0,.81-5.26h-3c0,2.27,0,4.53-.13,6.8l2.94-.4a21.75,21.75,0,0,0-3.14-8.38,1.52,1.52,0,0,0-2.8.76,19.57,19.57,0,0,0,.54,6.69c.41,1.61,3,1.31,2.95-.4a56.64,56.64,0,0,0-1.37-9.87,1.51,1.51,0,0,0-2.89,0,105.2,105.2,0,0,0-2.21,11.29l2.94.4-.53-8.42c-.09-1.37-2.08-2.18-2.8-.76A18.67,18.67,0,0,0,62,143a1.51,1.51,0,0,0,3-.4,48.52,48.52,0,0,1,.92-6.89l-2.94-.39A46,46,0,0,0,64.31,145c.34,1.36,2.63,1.49,2.89,0l2.73-15.67-3-.4c-.61,5.42-2.29,12-1,17.36a1.51,1.51,0,0,0,2.89,0,37.36,37.36,0,0,1,4.88-10.5L71,135.45a7.2,7.2,0,0,1,.52,4.61,1.5,1.5,0,0,0,2.89.8L79.64,125c.58-1.74-1.79-2.41-2.74-1.16q-4.08,5.43-7.64,11.19l2.59,1.51a136.54,136.54,0,0,0,6.81-16.63c.54-1.72-1.81-2.47-2.75-1.16l-9.79,13.74L68.71,134c2.6-5.23,5.94-10.55,7.65-16.14a1.51,1.51,0,0,0-2.74-1.16,125.44,125.44,0,0,0-8,16c-.65,1.56,2,2.69,2.74,1.15a88.15,88.15,0,0,0,5.27-14.15c.38-1.36-1.52-2.66-2.5-1.46a77.29,77.29,0,0,0-9.68,14.54l2.74,1.16A30.27,30.27,0,0,1,69,122.43l-2.59-1.51a51.31,51.31,0,0,0-2.23,5.62c-.6,1.83,2.3,2.62,2.9.79Z" transform="translate(-59.8 -69.84)"/><path d="M66.68,138.64l1.93,2.26c1.11,1.31,3.23-.38,2.35-1.82a41.3,41.3,0,0,1-3.91-8.42l-2.74,1.16L88,165.12c1.11,1.56,3.7.07,2.59-1.52L78.85,147l-2.35,1.82c15.16,18.11,25.37,39.76,40.88,57.61L119.2,204a134.51,134.51,0,0,1-29.52-28.77l-2.36,1.82a206,206,0,0,1,21.34,22.27l2.12-2.12C102.38,187.16,94.1,177,88.41,165.1l-2.36,1.81a257.83,257.83,0,0,1,23.41,32.68l2.35-1.82a152.62,152.62,0,0,1-26.07-38c-.73-1.52-3.26-.45-2.74,1.16a193.61,193.61,0,0,0,12.28,29.37l2.59-1.51A229,229,0,0,1,76.34,145c-.65-1.79-3.53-1-2.89.8q6.14,17.47,13.06,34.65c.7,1.74,3.51,1.07,2.89-.8q-5.27-15.83-11.71-31.21c-.72-1.72-3.43-1.12-2.89.8a168.4,168.4,0,0,0,9.44,25.46c.74,1.59,3.14.45,2.75-1.15a250.36,250.36,0,0,0-7.54-24.66l-2.74,1.16a160.37,160.37,0,0,1,9.48,15.7c.78,1.48,3.35.46,2.74-1.15L78.41,136.73l-2.74,1.16c6,12.18,12.22,24.26,21,34.74,1.24,1.49,3.33-.64,2.12-2.12q-11-13.39-21-27.6l-2.59,1.52,6.57,9.33,2.35-1.82a111.86,111.86,0,0,1-10.9-13.28,1.51,1.51,0,0,0-2.74,1.15A20.49,20.49,0,0,0,74,148.4a1.51,1.51,0,0,0,2.79-.76A41.41,41.41,0,0,0,75.72,136l-2.89.8a67.06,67.06,0,0,1,2.81,9.72l2.74-1.16a24.89,24.89,0,0,0-6.64-6.89,1.51,1.51,0,0,0-2.2.9A39.51,39.51,0,0,0,68.21,152l2.79-.76-3.78-7.7c-.72-1.46-2.67-.58-2.8.76l-1,10.35,2.94-.4-3-9.8a1.5,1.5,0,0,0-2.89.8,18.43,18.43,0,0,0,4.5,8.25c1.06,1.16,2.81-.07,2.5-1.46l-2.16-9.65-2.74,1.16a20.1,20.1,0,0,1,3.74,10l3-.4-1.41-7.3-2.5,1.46a53.63,53.63,0,0,1,6.54,9.29c.8,1.42,2.63.61,2.8-.76a22,22,0,0,0-.53-8.32l-2.9.8,2.14,6.7,2.5-1.46a26,26,0,0,1-4.34-5.94c-.94-1.73-3.37-.21-2.59,1.51l2.78,6.15c.61,1.35,2.9.69,2.79-.75a40.27,40.27,0,0,0-1.79-9.34,1.5,1.5,0,0,0-2.89.8l1.32,6.24,2.89-.8-2.31-8.28a1.5,1.5,0,0,0-2.89.79l2.31,8.29a1.5,1.5,0,0,0,2.89-.8l-1.32-6.24-2.89.8a36.4,36.4,0,0,1,1.68,8.54l2.8-.76-2.78-6.15L69,149.13a28.37,28.37,0,0,0,4.81,6.55,1.51,1.51,0,0,0,2.51-1.46l-2.13-6.7a1.51,1.51,0,0,0-2.9.8,19.88,19.88,0,0,1,.43,7.52l2.79-.75a56.27,56.27,0,0,0-7-9.9c-1.07-1.22-2.77.11-2.51,1.46l1.4,7.3c.32,1.64,3.11,1.29,2.95-.4a23.07,23.07,0,0,0-4.15-11.48,1.51,1.51,0,0,0-2.74,1.16l2.16,9.65,2.51-1.46a15.14,15.14,0,0,1-3.73-6.93l-2.89.8,3,9.8a1.51,1.51,0,0,0,2.95-.4l1-10.35-2.79.76,3.78,7.7a1.52,1.52,0,0,0,2.8-.76,37.13,37.13,0,0,1,1.22-11.87l-2.21.89a20.73,20.73,0,0,1,5.57,5.82,1.51,1.51,0,0,0,2.74-1.16A67.43,67.43,0,0,0,75.72,136a1.5,1.5,0,0,0-2.89.8,38.44,38.44,0,0,1,1,10.84l2.8-.76A18.93,18.93,0,0,1,73.4,139l-2.74,1.15A115.55,115.55,0,0,0,82,154.06c1.15,1.2,3.36-.4,2.36-1.82l-6.57-9.33c-1.11-1.56-3.71-.07-2.59,1.52q10.18,14.5,21.44,28.2l2.12-2.12c-8.6-10.27-14.62-22.2-20.53-34.14-.75-1.5-3.35-.44-2.75,1.16L86,165.4l2.74-1.16a160.37,160.37,0,0,0-9.48-15.7c-.9-1.32-3.36-.55-2.74,1.15a246,246,0,0,1,7.53,24.66l2.74-1.16a164,164,0,0,1-9.14-24.75l-2.89.8q6.45,15.38,11.71,31.21l2.89-.8Q82.47,162.47,76.34,145l-2.89.8a232.71,232.71,0,0,0,21.83,44.53,1.5,1.5,0,0,0,2.59-1.51,188.11,188.11,0,0,1-12-28.66l-2.75,1.16a155.3,155.3,0,0,0,26.54,38.57,1.51,1.51,0,0,0,2.36-1.82,263.15,263.15,0,0,0-23.88-33.28c-1.16-1.38-3,.38-2.35,1.82,5.79,12.13,14.28,22.49,22.84,32.74,1.24,1.49,3.34-.64,2.12-2.12A205,205,0,0,0,89.45,175c-1.19-1.06-3.44.39-2.36,1.82a138.87,138.87,0,0,0,30.6,29.85c1.46,1,2.87-1.14,1.81-2.35C104,186.43,93.78,164.78,78.62,146.66c-1.08-1.3-3.34.42-2.36,1.82L88,165.12l2.59-1.52L66.9,130.3c-.92-1.29-3.32-.57-2.74,1.16a45,45,0,0,0,4.21,9.14l2.36-1.82-1.93-2.26c-1.25-1.47-3.36.66-2.12,2.12Z" transform="translate(-59.8 -69.84)"/><path d="M95.92,112.05a25.61,25.61,0,0,0,6.53,2c1.55.26,2.8-1.91,1.16-2.74l-9.9-5L93,109.11a24.88,24.88,0,0,1,8,1l.4-3a23.63,23.63,0,0,1-10.7-3.2l-.36,2.74c22.66-6.77,42.19,10.31,49.4,30.6.65,1.8,3.55,1,2.9-.8-7.75-21.81-28.82-39.95-53.09-32.69a1.52,1.52,0,0,0-.36,2.74,27.23,27.23,0,0,0,12.21,3.61c1.72.1,2-2.48.4-3a27.43,27.43,0,0,0-8.79-1.1c-1.4,0-2.15,2.1-.76,2.8l9.9,5,1.16-2.74a22.06,22.06,0,0,1-5.82-1.71c-1.74-.78-3.27,1.8-1.51,2.59Z" transform="translate(-59.8 -69.84)"/><path d="M98.77,103.34c14.68-.81,24.43,11,32.63,21.52l1.81-2.36a70.17,70.17,0,0,0-34.33-8.21,1.5,1.5,0,0,0,0,3,165.29,165.29,0,0,1,33.22,3l.8-2.89A129.11,129.11,0,0,1,107,110.42l-.4,3a77.47,77.47,0,0,1,24.88,6.79l1.16-2.75-28.84-6.14-.4,3a77.58,77.58,0,0,1,21.86,5.24l.4-2.95a65.3,65.3,0,0,1-20.16-2.27l-.4,2.94c7.32,0,13.84,2.69,20.45,5.59,1.74.76,3.28-1.79,1.51-2.59A150.56,150.56,0,0,0,104.36,112a1.51,1.51,0,0,0-1.16,2.74q8.49,5.61,17.41,10.5l1.16-2.74-18.19-2.69c-1.87-.28-2.73,2.51-.8,2.89,9.59,1.88,19.13,3.84,28.32,7.24l.4-2.94-33.12-3c-1.7-.15-2,2.54-.4,3l21.34,5.4.4-2.95-20.46.22c-1.63,0-2.1,2.61-.4,2.95l28.79,5.7c1.88.37,2.7-2.44.8-2.89a122.42,122.42,0,0,0-36.89-3.08v3c6.13-.45,12.13.26,18.21,1.12l.39-2.94q-11.61-1-23.17-2.53v3a87.55,87.55,0,0,1,11.6,1.86l.4-2.95c-4.06.24-8.1.31-12.16.2v3a52.43,52.43,0,0,1,8.83.88l.4-2.94-13.19-.27c-1.64,0-2.1,2.66-.4,2.94l5.37.88.4-2.94a65.33,65.33,0,0,1-8.39.24v3l40.51,1.36a1.5,1.5,0,0,0,.4-2.94,103.55,103.55,0,0,1-13.92-4.15c-1.81-.68-2.59,2.22-.8,2.89A102.25,102.25,0,0,0,120,139.13l.39-2.95-40.51-1.36c-1.93-.06-1.93,2.93,0,3a65.27,65.27,0,0,0,8.39-.24c1.54-.15,2.2-2.65.4-3l-5.37-.88-.4,2.95,13.19.27c1.65,0,2.09-2.63.4-2.95a55.67,55.67,0,0,0-9.63-1,1.5,1.5,0,0,0,0,3c4.06.11,8.1,0,12.16-.2,1.61-.1,2.13-2.55.4-3a94.37,94.37,0,0,0-12.4-2c-1.95-.18-1.87,2.76,0,3q11.57,1.49,23.17,2.53c1.67.15,2.08-2.71.4-2.95-6.33-.9-12.6-1.7-19-1.23-1.92.14-1.94,3.14,0,3a119.72,119.72,0,0,1,36.09,3l.8-2.89-28.79-5.71-.4,3,20.46-.22a1.51,1.51,0,0,0,.4-3L98.78,124l-.4,2.94,33.12,3c1.79.16,1.88-2.4.4-2.95-9.19-3.4-18.73-5.37-28.32-7.24l-.8,2.89L121,125.34c1.56.23,2.78-1.85,1.16-2.74q-8.92-4.89-17.42-10.5l-1.15,2.74a146.13,146.13,0,0,1,22,7.93l1.51-2.59c-7.08-3.1-14.11-6-22-6a1.51,1.51,0,0,0-.4,2.95,67.74,67.74,0,0,0,21,2.38,1.51,1.51,0,0,0,.4-3,80.69,80.69,0,0,0-22.66-5.34c-1.68-.15-2,2.59-.4,3l28.84,6.14c1.56.33,2.79-2,1.16-2.74a82.23,82.23,0,0,0-26.4-7.2c-1.8-.19-1.86,2.38-.4,2.94a128.63,128.63,0,0,0,25.86,6.94c1.87.3,2.71-2.52.8-2.89a169.63,169.63,0,0,0-34-3.07v3a66.85,66.85,0,0,1,32.82,7.8,1.51,1.51,0,0,0,1.82-2.35c-8.72-11.18-19.22-23.26-34.75-22.4-1.92.11-1.94,3.11,0,3Z" transform="translate(-59.8 -69.84)"/><path d="M89.54,133.08h10.94c1.65,0,2.1-2.61.4-3l-7.23-1.44v2.89q20.16-4.91,40.53-8.81c1.91-.37,1.09-3.22-.79-2.89l-26.3,4.55.8,2.89,16.6-4.52c1.9-.52,1.08-3.22-.79-2.9a153.82,153.82,0,0,1-17.64,2l.4,2.95a72,72,0,0,1,13.54-2,1.5,1.5,0,0,0,0-3l-20-2.31v3a170.62,170.62,0,0,1,19.19,0c1.66.1,2.09-2.68.4-3l-12-1.89-.4,3a43.12,43.12,0,0,1,23.8,4l.36-2.74a87.76,87.76,0,0,1-18,2.61l.4,2.94L130,121.18c1.9-.5,1.07-3.21-.8-2.89-6.48,1.09-12.8,1.92-19.08-.56v2.9a100.67,100.67,0,0,1,14-4.15c1.67-.36,1.26-2.93-.4-2.94a76.76,76.76,0,0,1-17.47-2.13v2.89a83.42,83.42,0,0,1,9.57-1.33c1.55-.12,2.19-2.7.4-3l-17-2.29v2.89a86.6,86.6,0,0,1,10-1.08c1.92-.09,1.93-3.09,0-3a36.56,36.56,0,0,1-9.39-.73l-.4,3,4.09.13v-3a19.34,19.34,0,0,1-8.17-.75l-.4,2.94a132.63,132.63,0,0,1,15.69-.9,1.5,1.5,0,0,0,0-3l-10.41-.28a1.51,1.51,0,0,0-.4,2.95l20.43,6.26.4-2.94a21.72,21.72,0,0,1-8.24-2.25l-.76,2.8a30.83,30.83,0,0,1,6.56.46c1.29.23,2.77-1.48,1.46-2.5a21,21,0,0,0-9.19-4.31,1.52,1.52,0,0,0-1.84,1.85,8.82,8.82,0,0,0,6.08,6.42c1.83.63,2.61-2.27.8-2.9a5.27,5.27,0,0,1-4-4.32l-1.84,1.85a17.8,17.8,0,0,1,7.86,3.53l1.46-2.51a35.55,35.55,0,0,0-7.36-.57c-1.39,0-2.16,2.11-.75,2.79a26.28,26.28,0,0,0,9.75,2.66c1.74.13,2-2.47.4-3L100.67,104l-.4,2.94,10.41.28v-3a132.63,132.63,0,0,0-15.69.9,1.51,1.51,0,0,0-.4,3,21.25,21.25,0,0,0,9,.86,1.5,1.5,0,0,0,0-3l-4.09-.13c-1.66-.06-2.07,2.59-.4,2.94a39.17,39.17,0,0,0,10.19.84v-3a91.09,91.09,0,0,0-10.82,1.19c-1.42.23-1.46,2.69,0,2.89l17,2.3.39-3a88.55,88.55,0,0,0-10.37,1.44,1.51,1.51,0,0,0,0,2.89,80.35,80.35,0,0,0,18.27,2.24l-.4-3a102,102,0,0,0-14,4.14,1.52,1.52,0,0,0,0,2.9c6.75,2.66,13.71,1.72,20.68.55l-.8-2.89L113,122.54a1.51,1.51,0,0,0,.4,2.95,92,92,0,0,0,18.75-2.71,1.52,1.52,0,0,0,.36-2.75,46,46,0,0,0-25.32-4.37c-1.52.17-2.22,2.66-.4,3l12,1.89.39-3a170.62,170.62,0,0,0-19.19,0,1.5,1.5,0,0,0,0,3l20,2.31v-3A76.39,76.39,0,0,0,105.66,122c-1.62.4-1.31,3,.4,2.94a160.66,160.66,0,0,0,18.43-2.1l-.79-2.9-16.61,4.53c-1.89.52-1.07,3.22.8,2.89l26.29-4.55-.79-2.89q-20.38,3.9-40.54,8.81a1.51,1.51,0,0,0,0,2.89l7.23,1.45.4-2.95H89.54a1.5,1.5,0,0,0,0,3Z" transform="translate(-59.8 -69.84)"/><path d="M76.66,167.49a38.15,38.15,0,0,0-.54-8.93l-2.9.79A88.58,88.58,0,0,0,81,174.69a1.5,1.5,0,0,0,2.59-1.51l-5.64-12.45-2.35,1.82a45.41,45.41,0,0,1,6.9,8.37l2.59-1.52a46.47,46.47,0,0,1-6.16-11l-2.74,1.15,3.61,5.81a1.5,1.5,0,0,0,2.59-1.51,112.12,112.12,0,0,1-5.6-12c-.5-1.26-2.53-1.58-2.89,0a29,29,0,0,0,0,13.61l2.74-1.16a74.3,74.3,0,0,1-7.87-14.1L66,151.45a123.3,123.3,0,0,1,5.24,13.28L74,163.57a65.34,65.34,0,0,1-6-9.42,1.51,1.51,0,0,0-2.79.75,51.27,51.27,0,0,0,2.45,12.38l2.74-1.15a45,45,0,0,1-4.9-11.44L63,156.15A61.08,61.08,0,0,0,73.16,164a1.51,1.51,0,0,0,2.2-1.69c-.72-2.68-1.53-5.32-2.43-7.95l-2.5,1.46a15.53,15.53,0,0,1,4.45,5.72l2.35-1.82-3.81-3c-.92-.73-2.66-.37-2.57,1.06a39.51,39.51,0,0,0,3.56,14.08L76.77,170A42.45,42.45,0,0,1,70,161.56a1.5,1.5,0,0,0-2.59,1.51L73.81,175l2.36-1.82-6.36-7.61c-1.13-1.35-3.14.37-2.36,1.81l5.14,9.5c.93,1.71,3.42.2,2.59-1.52L71.66,168l-2.59,1.52a19.07,19.07,0,0,0,6.76,6.86,1.53,1.53,0,0,0,2.21-1.7l-1.46-9.61-2.51,1.46a49.58,49.58,0,0,1,7.34,8.93c1,1.61,3.62.13,2.59-1.52a37.73,37.73,0,0,0-4.78-6.12c-1.28-1.33-3,.35-2.36,1.81l3.69,8.61,2.36-1.82a32.92,32.92,0,0,1-4.83-5c-1.14-1.48-3.62-.19-2.59,1.51A53.75,53.75,0,0,1,80,182.2l2.2-1.7a67.63,67.63,0,0,1-7.49-6.66,1.51,1.51,0,0,0-2.36,1.82l3.22,6.42,2.59-1.51-2.35-3.25-2.36,1.81,4.3,3.62c1.46,1.24,3.6-.87,2.12-2.12L75.57,177c-1.2-1-3.42.34-2.35,1.82l2.35,3.25a1.5,1.5,0,0,0,2.59-1.51l-3.22-6.42L72.58,176a73.14,73.14,0,0,0,8.11,7.12c1,.79,2.64-.52,2.2-1.69a57.75,57.75,0,0,0-4.81-10l-2.59,1.51a36.78,36.78,0,0,0,5.29,5.65,1.51,1.51,0,0,0,2.36-1.82l-3.69-8.6-2.36,1.82a33.92,33.92,0,0,1,4.32,5.52L84,173.93a53.3,53.3,0,0,0-7.81-9.53,1.51,1.51,0,0,0-2.51,1.45l1.46,9.62,2.21-1.69A16,16,0,0,1,71.66,168c-1-1.68-3.42-.21-2.59,1.52l3.52,7.34,2.59-1.52L70,165.84l-2.35,1.82,6.36,7.61c1.13,1.35,3.14-.37,2.35-1.82L70,161.56l-2.59,1.51a45.2,45.2,0,0,0,7.28,9A1.5,1.5,0,0,0,77,170.28a35,35,0,0,1-3.15-12.56l-2.56,1.06,3.82,3A1.51,1.51,0,0,0,77.47,160a17.34,17.34,0,0,0-4.92-6.32c-1-.87-3-.1-2.51,1.46q1.35,3.93,2.43,8l2.2-1.7a57.55,57.55,0,0,1-9.6-7.36,1.51,1.51,0,0,0-2.51,1.46,48,48,0,0,0,5.21,12.15c.85,1.42,3.29.5,2.74-1.15a47.61,47.61,0,0,1-2.34-11.59l-2.8.76a64.26,64.26,0,0,0,6,9.42c.94,1.23,3.33.62,2.74-1.15a128.47,128.47,0,0,0-5.54-14c-.71-1.52-3.4-.41-2.74,1.16A77.8,77.8,0,0,0,74,165.91a1.51,1.51,0,0,0,2.74-1.16,25.44,25.44,0,0,1,0-12H73.86a115.78,115.78,0,0,0,5.9,12.68l2.59-1.51-3.61-5.81c-.85-1.38-3.39-.49-2.74,1.15a49.18,49.18,0,0,0,6.46,11.68c1.13,1.5,3.66.15,2.59-1.52a48.44,48.44,0,0,0-7.37-9,1.51,1.51,0,0,0-2.36,1.82L81,174.69l2.59-1.51a84.43,84.43,0,0,1-7.43-14.62,1.5,1.5,0,0,0-2.9.79,33.68,33.68,0,0,1,.44,8.14c-.11,1.92,2.89,1.92,3,0Z" transform="translate(-59.8 -69.84)"/><path d="M76.39,176.55c3.5,6.7,9.42,13.37,15.07,18.32,1.45,1.27,3.58-.84,2.13-2.12C88.06,187.91,82.39,181.57,79,175c-.9-1.72-3.49-.2-2.59,1.51Z" transform="translate(-59.8 -69.84)"/><path d="M81.27,178.61c-.07,2.45,1.44,4.08,3,5.75a77.83,77.83,0,0,1,7,8.35c1.12,1.55,3.72,0,2.59-1.51-1.52-2.1-3.11-4.13-4.82-6.08-1.47-1.67-4.92-4.08-4.85-6.51,0-1.93-3-1.93-3,0Z" transform="translate(-59.8 -69.84)"/><path d="M82.62,174.74c-.65,3.45.95,5.39,3.5,7.6,3.2,2.79,5,6.61,8,9.44,1.19,1.09,3.41-.39,2.36-1.82a101.74,101.74,0,0,1-8.19-13.88c-.71-1.38-2.74-.65-2.79.76a30.1,30.1,0,0,0,1.13,9.48l1.45-1.9c-4.09.31-6.68-3.13-10-4.74-1.1-.53-2.65.35-2.21,1.69,2.34,7.09,10.41,13.28,16.78,16.65a1.51,1.51,0,0,0,1.82-2.36c-3.39-3.42-5.67-13-11.18-13.46a1.52,1.52,0,0,0-1.5,1.5c-.22,5.09,4.87,10.66,8.19,14.16a1.5,1.5,0,0,0,2.35-1.81,14.62,14.62,0,0,0-6.06-6,1.51,1.51,0,0,0-2,2.06c1.82,3.52,3.89,6.65,8.07,7.31,1.88.3,2.7-2.59.79-2.89-3.36-.53-4.86-3.2-6.27-5.94l-2.06,2.05a11.92,11.92,0,0,1,5,4.88l2.36-1.82c-2.39-2.52-7.48-8.2-7.31-12l-1.5,1.5c2.08.18,4.11,5.41,5,7a25,25,0,0,0,4,5.54l1.82-2.35c-5.46-2.88-13.37-8.7-15.4-14.86l-2.21,1.7c4,1.92,6.79,5.51,11.56,5.15a1.53,1.53,0,0,0,1.44-1.9,28,28,0,0,1-1-8.68l-2.8.76a101.63,101.63,0,0,0,8.19,13.87l2.35-1.82c-1.9-1.76-3-4.16-4.68-6.14s-6.64-4.92-6.06-8c.35-1.89-2.54-2.7-2.9-.8Z" transform="translate(-59.8 -69.84)"/><path d="M81,186.78a32.78,32.78,0,0,0,4.52,4,1.52,1.52,0,0,0,2.06-.54,1.54,1.54,0,0,0-.54-2.05,28.34,28.34,0,0,1-3.92-3.5c-1.32-1.42-3.44.71-2.12,2.12Z" transform="translate(-59.8 -69.84)"/><path d="M104.39,196.08c-2.91,2.73.9,6,3.93,4.62,2.43-1.13,9.34-6.64,6.78-9.9-3-3.78-9,1.18-10.39,3.91-2.06,4.25,1.45,6.9,5.62,5.29,2.81-1.09,8.72-6.61,5.57-9.73-3.44-3.43-10.55,2.13-12.31,5-2.08,3.42-.38,7.17,3.89,6.19,3-.68,9.94-6,7-9.49s-7.48.79-8.59,3.59c-1.43,3.61-1.18,10.78,4.25,8.15,2.42-1.17,8.2-6.62,4.58-9.27s-8.76,2.93-9.1,6.21c-1,9.8,20.44-4.89,12.76-8.64-3.9-1.91-10.15,4.37-10.3,8-.21,5.14,5.78,2.55,8.06.79,1.75-1.35,4.51-3.6,4.21-6.13s-2.82-3.48-5-3.49c-3.32,0-11.57,4.21-7.59,8.51,3.1,3.34,11.68-2.2,11.78-6,.14-5.57-7.83-3.28-9.62-.19a1.5,1.5,0,0,0,0,1.52c2.31,4,8.76-1.17,10.72-2.91a1.5,1.5,0,0,0,0-2.12c-2.52-2-7.13-5.23-10-2.11-1.76,1.92-2.5,6.06.81,6.65,3.58.63,6.57-3.63,4.78-6.69-1.94-3.32-6.54-3.13-9.23-.92-2.5,2.06-4.08,6.7-.29,8.39,4.07,1.82,8.5-3.1,8.18-7-.23-2.75-4-6.89-7-5.91-4.39,1.39-1.52,8.7-.08,11.14a1.5,1.5,0,0,0,2.74-1.15,93.21,93.21,0,0,0-3.36-8.74l-2.6,1.51,5.66,7.61,2.35-1.82a160.69,160.69,0,0,1-12.13-12.76l-1.81,2.36c5.75,2.45,11,7.28,15.78,11.21l1.82-2.36a91.49,91.49,0,0,1-12.78-10.78L101.6,181a122.11,122.11,0,0,1,12.34,10.13l1.82-2.36a88.25,88.25,0,0,1-14.24-12.72l-1.46,2.51c4.1,1.5,8.15,5.16,11.53,7.82l1.82-2.35a81.34,81.34,0,0,1-15.07-9l-1.82,2.35,10.61,7.44c1.4,1,3.07-1.21,1.82-2.35a80.73,80.73,0,0,1-7.2-7.48l-1.82,2.36a55.32,55.32,0,0,1,6.35,4.25l1.82-2.35a82.78,82.78,0,0,1-10.43-6.63l-1.51,2.59a66.15,66.15,0,0,1,7.11,5.25c1.46,1.25,3.6-.87,2.12-2.12a70.66,70.66,0,0,0-7.72-5.72c-1.66-1.07-3,1.46-1.51,2.59a82.78,82.78,0,0,0,10.43,6.63c1.42.76,3.21-1.26,1.81-2.36a58.57,58.57,0,0,0-7-4.72,1.51,1.51,0,0,0-1.82,2.36,81.89,81.89,0,0,0,7.2,7.47l1.82-2.36L98,174.81c-1.37-1-3.15,1.29-1.81,2.36a84,84,0,0,0,15.68,9.46c1.42.69,3.24-1.24,1.82-2.36-3.94-3.1-8.13-6.86-12.87-8.6-1.5-.55-2.38,1.49-1.46,2.51a92.67,92.67,0,0,0,14.86,13.19c1.39,1,3-1.2,1.82-2.35a128.82,128.82,0,0,0-13-10.6c-1.43-1-2.94,1.16-1.82,2.35A96.1,96.1,0,0,0,114.69,192c1.36,1,3.13-1.27,1.82-2.35-5-4.12-10.41-9.13-16.4-11.68a1.51,1.51,0,0,0-1.82,2.35,159,159,0,0,0,12.13,12.76c1.18,1.12,3.42-.39,2.36-1.81l-5.65-7.61a1.5,1.5,0,0,0-2.6,1.51,82.75,82.75,0,0,1,3.07,8l2.74-1.15a9.36,9.36,0,0,1-1.71-5.16q4.19-1.34,2.51,3.87a2.68,2.68,0,0,0,3.26-1,11.84,11.84,0,0,1,4.1,2.36V190l-2.06,1.7c-1.26.26-1.67,1-1.23,2.08a1.32,1.32,0,0,1-.94,2c-1,1.13-2.09,1.09-3.38-.1l2.84-1.38,1.89,3c-.23,1.11-4.69,3.59-3.26.55.27-.56,4.27-3.46,4.36-3.21.15.43-2.23,2.59-2.69,3-1,.94-2.58,2.75-3.86,2-1.1-.43-.85-.84.75-1.24q2.85-2,0,1c-1.35,1.38-1.77,1.67-2.77,0q-.53-4.5,2.69-4.8c1.31-.52,1.4-.29.27.68-.43.73-3.6,3.69-4.46,3.3-1-.46.83-3.25,1.25-3.72,2.14-2.42,4.33-.47,3,1.17-.93,1.19-7.28,2.09-2.38-1.77l3.92-1.71-1.46,2c-1.42,1.67-2.94,2.11-4.55,3.63,1.41-1.33-.71-3.44-2.12-2.12Z" transform="translate(-59.8 -69.84)"/><path d="M132.15,217.7l49.68,6.06c1.91.23,1.89-2.77,0-3l-49.68-6.06c-1.91-.23-1.9,2.77,0,3Z" transform="translate(-59.8 -69.84)"/><path d="M130.21,217.89c7.53-3.44,14.32-8.1,22.52-9.89,7.2-1.58,14.43-2.05,21.21-5.18,1.75-.81.23-3.39-1.51-2.59-7.53,3.48-15.86,3.39-23.72,5.67-7.13,2.07-13.31,6.33-20,9.4-1.76.8-.23,3.39,1.51,2.59Z" transform="translate(-59.8 -69.84)"/><path d="M135.92,216.17a196.24,196.24,0,0,1,29.09.72c1.92.19,1.9-2.81,0-3a196.24,196.24,0,0,0-29.09-.72c-1.92.1-1.94,3.1,0,3Z" transform="translate(-59.8 -69.84)"/><path d="M138.39,217l11.06-.12a1.5,1.5,0,0,0,0-3l-5.88-.42,1.3,2.26c2.21-5.18,12.77-8.72,17.53-10.55l-1.16-2.74a113.24,113.24,0,0,1-18.06,6.79l1.15,2.74a96.63,96.63,0,0,1,15.83-6.9l-.79-2.89q-12.37,4.56-24.43,9.88c-1.54.68-.44,3.34,1.16,2.75q10-3.72,20.13-6.87l-1.16-2.74A102.49,102.49,0,0,1,139.6,213c-1.77.7-1,3.58.79,2.9a119.64,119.64,0,0,1,17.79-5.21L157,207.91l-10.3,5.79c-1.54.86-.46,3.07,1.16,2.74a108.23,108.23,0,0,0,21.79-7c1.54-.67.42-3.4-1.15-2.74-5.33,2.23-10.56,4.65-15.69,7.3l1.51,2.59A112.12,112.12,0,0,1,179.5,202.3l-1.15-2.74a178.11,178.11,0,0,1-21.54,11.21l1.52,2.59q11.53-5.94,23.28-11.47l-1.52-2.59q-11.49,6-23.28,11.34l1.51,2.59a277.75,277.75,0,0,1,26.37-12.4c1.55-.66.44-3.31-1.15-2.74q-16,5.7-32.29,10.17l1.16,2.75a224.57,224.57,0,0,1,27.86-12.89l-1.16-2.74A264.42,264.42,0,0,0,154,207.91c-1.71,1-.21,3.37,1.52,2.59l22.63-10.35c1.54-.71.45-3.26-1.16-2.74L150.43,206l1.46,2.5A40.24,40.24,0,0,1,167.76,200l-.8-2.9a224.39,224.39,0,0,0-24,8.72c-1.55.67-.45,3.29,1.16,2.74l11.68-4c1.82-.62,1-3.52-.8-2.9l-11.68,4,1.15,2.74A218.91,218.91,0,0,1,167.76,200a1.51,1.51,0,0,0-.8-2.9,43.84,43.84,0,0,0-17.19,9.32,1.51,1.51,0,0,0,1.46,2.51l26.57-8.58-1.16-2.74L154,207.91l1.52,2.59A264.42,264.42,0,0,1,180.63,198c1.54-.67.43-3.35-1.16-2.74a229.35,229.35,0,0,0-28.57,13.19,1.5,1.5,0,0,0,1.15,2.74q16.33-4.49,32.28-10.18l-1.15-2.74a277.75,277.75,0,0,0-26.37,12.4c-1.72,1-.21,3.37,1.51,2.59q11.79-5.37,23.29-11.34c1.73-.9.21-3.41-1.52-2.59q-11.75,5.52-23.28,11.47c-1.74.91-.21,3.35,1.52,2.59a178,178,0,0,0,21.53-11.21c1.38-.85.48-3.41-1.16-2.75A115.08,115.08,0,0,0,152.83,214a1.5,1.5,0,0,0,1.51,2.59q7.36-3.8,15-7l-1.15-2.74a104.56,104.56,0,0,1-21.08,6.66l1.15,2.74,10.31-5.79c1.53-.86.46-3.08-1.16-2.74A120.69,120.69,0,0,0,139.6,213l.79,2.9a108.12,108.12,0,0,0,16.2-8.05,1.51,1.51,0,0,0-1.16-2.74q-10.16,3.15-20.13,6.86l1.16,2.74q11.7-5.14,23.7-9.58c1.79-.66,1.06-3.51-.79-2.89a100.43,100.43,0,0,0-16.55,7.2,1.51,1.51,0,0,0,1.16,2.74,117.8,117.8,0,0,0,18.78-7.09c1.51-.72.43-3.35-1.16-2.74a82,82,0,0,0-11.66,5.47c-2.87,1.66-6.31,3.27-7.67,6.45a1.53,1.53,0,0,0,1.3,2.26l5.88.42v-3l-11.06.12a1.5,1.5,0,0,0,0,3Z" transform="translate(-59.8 -69.84)"/><path d="M162.21,207.56a39.34,39.34,0,0,1-7.36,0c-2.27-.27-4.22-1.22-6.43-1.68-3.08-.65-5.78.36-8.43,1.92a1.5,1.5,0,0,0,1.51,2.59c4.36-2.56,7-1,11.25-.08a35.68,35.68,0,0,0,9.46.22c1.92-.12,1.93-3.12,0-3Z" transform="translate(-59.8 -69.84)"/><path d="M150.24,218A130.9,130.9,0,0,1,181,221.62c1.87.45,2.67-2.44.79-2.89A133.75,133.75,0,0,0,150.24,215a1.5,1.5,0,0,0,0,3Z" transform="translate(-59.8 -69.84)"/><path d="M184,222.67c1-3.83,3.61-6.77,5.94-9.87,2.6-3.46,5.24-6.89,8-10.2,3.6-4.25,7.89-8,9.19-13.65.43-1.88-2.46-2.68-2.9-.79-1.61,7-8.91,12.74-13.21,18.26-3.66,4.7-8.37,9.59-10,15.45a1.5,1.5,0,0,0,2.89.8Z" transform="translate(-59.8 -69.84)"/><path d="M208.31,185.75c-7.38.82-14.27,7.15-19.75,11.81a105.17,105.17,0,0,0-17.2,18.87c-1.13,1.57,1.47,3.07,2.59,1.51a102.22,102.22,0,0,1,14.29-16.11c5-4.57,13-12.3,20.07-13.08,1.9-.21,1.92-3.21,0-3Z" transform="translate(-59.8 -69.84)"/><path d="M176.25,218.49A113.78,113.78,0,0,1,205,192.13c1.62-1,.11-3.64-1.52-2.59A118.29,118.29,0,0,0,173.66,217c-1.18,1.53,1.42,3,2.59,1.52Z" transform="translate(-59.8 -69.84)"/><path d="M203.39,189.41c-10.48,7-17.63,19.52-25.15,29.39-1.18,1.54,1.43,3,2.59,1.52,7.21-9.47,14-21.6,24.08-28.32,1.59-1.07.09-3.67-1.52-2.59Z" transform="translate(-59.8 -69.84)"/><path d="M178.07,219a134.12,134.12,0,0,1,22.65-21.38c1.54-1.14,0-3.75-1.51-2.59A136.78,136.78,0,0,0,176,216.9c-1.23,1.47.88,3.6,2.12,2.12Z" transform="translate(-59.8 -69.84)"/><path d="M199.08,194.83c-8.87,5.55-14.74,17-20.05,25.71-1,1.65,1.58,3.16,2.59,1.52q4-6.51,8.34-12.76c3.07-4.36,6-9,10.63-11.88,1.64-1,.13-3.61-1.51-2.59Z" transform="translate(-59.8 -69.84)"/><path d="M163.76,217.76c8-1.45,15.26-5,22.48-8.6,1.72-.87.2-3.46-1.52-2.59-7,3.53-14,6.9-21.76,8.29-1.9.34-1.09,3.24.8,2.9Z" transform="translate(-59.8 -69.84)"/><path d="M169.35,217.46a19.41,19.41,0,0,0,4.7-1.06,1.5,1.5,0,1,0-.8-2.89,16.34,16.34,0,0,1-3.9,1,1.55,1.55,0,0,0-1.5,1.5,1.5,1.5,0,0,0,1.5,1.5Z" transform="translate(-59.8 -69.84)"/><path d="M161.11,215.61q8.82-.5,17.55-1.76l-.8-2.89c-7.13,1.54-13.92,4.52-21.31,4.7l.76,2.8a191.68,191.68,0,0,1,23.1-11.25c1.41-.58,1.44-3.12-.4-3a28.34,28.34,0,0,0-12.92,4.33,1.51,1.51,0,0,0,.35,2.74,22.31,22.31,0,0,0,11,.24c1.63-.35,1.3-3.08-.4-2.94l-8.46.69.4,3a39.47,39.47,0,0,0,11.44-4.86,1.52,1.52,0,0,0-.36-2.74,10.41,10.41,0,0,0-5-.17l1.16,2.74q5.34-3.92,10.88-7.5l-1.82-2.36c-3.2,2.51-6.49,4.86-9.88,7.09l1.82,2.36a138.44,138.44,0,0,1,15.42-12.1l-1.51-2.59-10.88,8c-1.53,1.12-.1,3.69,1.52,2.59l17.75-12.08c1-.66,1-2.46-.36-2.74-4.87-1-10.32,3.06-14.36,5.3-5.72,3.17-14.89,9.66-21.8,7.71l.66,2.51c7.55-7.44,18-9.21,28-10.75l-1.16-2.75a63.12,63.12,0,0,1-16.77,8.71,39.62,39.62,0,0,1-8.14,2.11c-2.19.23-2.18-.14-3.59-1.19a1.46,1.46,0,0,0-1.51,0l-.35.18,1.82,2.36c5.78-5.17,14.07-4.23,21.26-5.25l-1.16-2.74a80.49,80.49,0,0,1-13.8,5.25l.8,2.9,12.32-4.87a1.5,1.5,0,0,0-.4-2.94c-9.49-.21-16.78,6.5-25.66,8.71l1.15,2.74a93.46,93.46,0,0,1,21.46-7.2c1.89-.39,1.09-3.28-.79-2.89a96.5,96.5,0,0,0-22.18,7.5c-1.58.75-.45,3.14,1.15,2.74,8.56-2.13,15.79-8.8,24.87-8.6l-.4-3-12.32,4.86c-1.75.7-1.11,3.43.8,2.9a84.66,84.66,0,0,0,14.51-5.56c1.67-.81.38-3-1.15-2.74-8,1.13-16.21.31-22.59,6-1.31,1.17.36,3.13,1.82,2.35-1.29.69-1.54,0-.56,1.12a2.36,2.36,0,0,0,1.46.68c2.6.63,7.15-1.15,9.57-1.84a65.65,65.65,0,0,0,19.9-9.77,1.51,1.51,0,0,0-1.16-2.74c-10.66,1.64-21.41,3.69-29.37,11.53a1.52,1.52,0,0,0,.66,2.51c5.27,1.48,11.49-1.48,16.17-3.76,2.95-1.43,5.79-3.08,8.66-4.66s7.95-5.29,11.33-4.59L199,188l-17.76,12.08,1.52,2.59,10.87-8c1.53-1.11.11-3.68-1.51-2.59a143,143,0,0,0-16,12.57c-1.25,1.13.39,3.3,1.82,2.35,3.6-2.37,7.08-4.89,10.48-7.56,1.34-1.05-.4-3.27-1.82-2.35q-5.55,3.58-10.87,7.5a1.51,1.51,0,0,0,1.15,2.74l3.42.17-.36-2.74a37.24,37.24,0,0,1-10.72,4.56c-1.6.4-1.31,3.09.4,2.94l8.46-.69-.4-2.95a18.76,18.76,0,0,1-9.41-.24l.36,2.74A25,25,0,0,1,180,207.26l-.4-2.95a197.37,197.37,0,0,0-23.82,11.56,1.51,1.51,0,0,0,.76,2.79c7.67-.18,14.69-3.2,22.11-4.81,1.93-.42,1.06-3.16-.8-2.89-5.56.8-11.14,1.33-16.75,1.65-1.92.1-1.93,3.1,0,3Z" transform="translate(-59.8 -69.84)"/><path d="M191.07,191.82c-6.43-.67-17.71,1-20.65,7.83-.75,1.75,1.83,3.28,2.59,1.51,2.47-5.75,12.77-6.89,18.06-6.34,1.92.2,1.91-2.8,0-3Z" transform="translate(-59.8 -69.84)"/><path d="M171.79,201.86a1.5,1.5,0,0,0,0-3,1.5,1.5,0,0,0,0,3Z" transform="translate(-59.8 -69.84)"/><path d="M114.13,133.9a142.06,142.06,0,0,1,25.66,1.21l.4-3a54.85,54.85,0,0,1-26.31-6l-1.16,2.74q7.75,2,15.63,3.36l.4-2.94a77.29,77.29,0,0,1-10.32-.5v3c5.23.12,10.42.46,15.62,1,1.69.18,2-2.57.4-2.95a24.12,24.12,0,0,1-8.39-3.7L124.9,129l14.51,4.25c1.6.47,2.71-2,1.16-2.74l-11.45-5.57a1.5,1.5,0,0,0-1.51,2.59l8.26,5.62,1.52-2.59a97,97,0,0,1-10.34-7.44l-1.46,2.51a30.94,30.94,0,0,1,10.49,4.12l1.15-2.74a50.9,50.9,0,0,1-10.37-3.58c-1.45-.69-3.17,1.13-1.82,2.35a47.78,47.78,0,0,0,8.58,6.22c.9.51,2.38-.12,2.25-1.3a35.65,35.65,0,0,0-1.89-8.39l-2.51,1.46a30.1,30.1,0,0,1,7.09,8.11,1.5,1.5,0,0,0,2.59-1.52,32,32,0,0,1-2.9-6.39l-2.74,1.16,5.75,7.57c.92,1.2,3.46.57,2.74-1.16a76,76,0,0,0-4.41-9l-2.35,1.81a27.44,27.44,0,0,1,4.47,7.26c.67,1.57,3.23.45,2.74-1.16L141.29,120l-2.5,1.46a32.88,32.88,0,0,1,4.2,6.38l2.36-1.82a20,20,0,0,1-3.25-4.82l-2.59,1.52a40.52,40.52,0,0,1,3.7,8.71L146,130.3a35.88,35.88,0,0,1-4.21-8.28l-2.51,1.46a33.45,33.45,0,0,1,5.44,9.67,1.5,1.5,0,0,0,2.89-.8,108.41,108.41,0,0,0-2.34-11.69l-2.74,1.16,3.84,7.08c1,1.74,3.32.2,2.59-1.52l-4.24-10c-.67-1.58-3.22-.45-2.74,1.15l3.46,11.69a1.51,1.51,0,0,0,3-.4,22.61,22.61,0,0,0-.9-6.65l-2.75,1.15c3.45,4.59,1.89,10.89,3.84,16.12l1.84-1.85a78.63,78.63,0,0,0-31.68-5.8c-1.62,0-2.12,2.64-.4,3l16.63,2.95.4-2.95a132.3,132.3,0,0,1-16.17.6v3a184,184,0,0,1,23.69,1.35c1.77.21,1.89-2.42.4-2.95L135.59,135l-.4,2.95a43.56,43.56,0,0,1,11.7,2.17,1.51,1.51,0,0,0,1.46-2.51l-5.65-5.53c-1.4-1.37-3.36.67-2.13,2.12l3.73,4.38c1,1.15,2.95-.07,2.51-1.46l-1.41-4.38-2.74,1.16a26.4,26.4,0,0,0,7.75,7.54,1.5,1.5,0,0,0,2.25-1.29l-1.23-9.3c-.25-1.84-3-2-3,0l-3.19.06-1.84,1.85,2.76,1.87,1.06-2.56c-5.82.38-6.39-7.36-9.19-10.51a7.55,7.55,0,0,0-6.38-2.73,1.51,1.51,0,0,0-.75,2.79,33.39,33.39,0,0,0,8.57,3.45,1.5,1.5,0,0,0,.8-2.89l-5-1.93-.39,3,3.79.35A1.51,1.51,0,0,0,139.7,121l-2.4-2.32c-1.39-1.33-3.52.78-2.12,2.13l2.4,2.31,1.06-2.56-3.79-.35c-1.81-.17-1.86,2.38-.4,2.94l5,1.93.8-2.89a31.08,31.08,0,0,1-7.86-3.15l-.76,2.8c5.76-.24,6.32,7.48,9.16,10.6a7.43,7.43,0,0,0,6.41,2.64,1.52,1.52,0,0,0,1.06-2.56,8.85,8.85,0,0,0-4.09-2.65,1.51,1.51,0,0,0-1.84,1.85c1.52,5.67,9.18,5.38,9.08-.86h-3l1.23,9.3,2.26-1.3a22.37,22.37,0,0,1-6.67-6.47c-.91-1.33-3.29-.55-2.74,1.16l1.4,4.38,2.51-1.46-3.72-4.38-2.13,2.12,5.66,5.54,1.46-2.51a46.32,46.32,0,0,0-12.5-2.28c-1.78-.09-1.92,2.4-.4,2.94l7.65,2.71.4-2.94a184,184,0,0,0-23.69-1.35,1.5,1.5,0,0,0,0,3,132.3,132.3,0,0,0,16.17-.6c1.54-.15,2.2-2.62.4-2.94l-16.63-3-.4,2.95a76.54,76.54,0,0,1,30.89,5.69,1.5,1.5,0,0,0,1.84-1.84c-2.07-5.55-.41-11.87-4.14-16.83-.95-1.27-3.25-.61-2.74,1.15a19.69,19.69,0,0,1,.8,5.86l2.94-.4-3.46-11.69-2.74,1.16,4.24,10,2.59-1.52-3.84-7.08a1.51,1.51,0,0,0-2.74,1.16,110.9,110.9,0,0,1,2.34,11.69l2.89-.8a38.34,38.34,0,0,0-6.21-11c-.94-1.16-3,.1-2.51,1.46a38.93,38.93,0,0,0,4.52,9c.92,1.35,3.24.56,2.74-1.16a43.25,43.25,0,0,0-4-9.43c-1-1.69-3.45-.2-2.59,1.52a24.1,24.1,0,0,0,3.72,5.43c1.18,1.32,3.1-.36,2.36-1.82a36.94,36.94,0,0,0-4.68-7c-1-1.16-2.93.08-2.51,1.46l3.16,10.39,2.74-1.16a30,30,0,0,0-4.94-7.86c-1.13-1.31-3.19.37-2.36,1.82a71.26,71.26,0,0,1,4.11,8.31l2.74-1.16-5.75-7.57c-.94-1.23-3.33-.6-2.74,1.16a35.19,35.19,0,0,0,3.2,7.11l2.59-1.52a32.65,32.65,0,0,0-7.56-8.71c-1-.84-3.06-.1-2.5,1.46a32.25,32.25,0,0,1,1.78,7.59l2.26-1.29a44.59,44.59,0,0,1-8-5.75L125.34,126a54.53,54.53,0,0,0,11.1,3.88,1.51,1.51,0,0,0,1.15-2.74,33,33,0,0,0-11.2-4.43c-1.33-.26-2.72,1.47-1.46,2.51a102.38,102.38,0,0,0,10.94,7.91c1.66,1,3.1-1.52,1.52-2.59l-8.27-5.62-1.51,2.59,11.44,5.57,1.16-2.74-14.51-4.26c-1.7-.5-2.52,1.82-1.16,2.74a25.91,25.91,0,0,0,9.11,4l.4-2.94c-5.2-.58-10.39-.92-15.62-1-2,0-1.87,2.79,0,3a77.29,77.29,0,0,0,10.32.5c1.62,0,2.12-2.65.4-3Q121.26,128,113.52,126c-1.6-.41-2.72,2-1.16,2.74a58.23,58.23,0,0,0,27.83,6.39c1.61,0,2.13-2.7.4-2.94a146.34,146.34,0,0,0-26.46-1.32c-1.92.08-1.93,3.08,0,3Z" transform="translate(-59.8 -69.84)"/><path d="M146.47,138.28a5.07,5.07,0,0,1-4.31-1.34c-1.4-1.33-3.52.79-2.12,2.13a7.9,7.9,0,0,0,6.43,2.21,1.55,1.55,0,0,0,1.5-1.5,1.5,1.5,0,0,0-1.5-1.5Z" transform="translate(-59.8 -69.84)"/><path d="M151.4,131.87a7.59,7.59,0,0,0-1-5.48c-1.46-2.11-2.92-3.76-3.78-6.24-.64-1.81-3.54-1-2.9.8a19.43,19.43,0,0,0,2.63,5.15,22,22,0,0,1,1.7,2.27,5.58,5.58,0,0,1,.33,3.5c-.21,1.92,2.79,1.9,3,0Z" transform="translate(-59.8 -69.84)"/><path d="M107.64,103.21c12.49.29,20.56,10.73,29.24,18.26l1.82-2.36c-8.31-4.64-14.13-12.46-22.73-16.53l-.76,2.79A26.6,26.6,0,0,1,137,115.15c1.25,1.48,3.36-.65,2.13-2.12a29.53,29.53,0,0,0-23.87-10.66c-1.38,0-2.18,2.12-.76,2.8,8.56,4,14.44,11.9,22.74,16.54,1.43.8,3.14-1.21,1.81-2.36-9.39-8.14-17.9-18.83-31.36-19.14-1.93,0-1.93,3,0,3Z" transform="translate(-59.8 -69.84)"/><path d="M114.68,103.37c9.16-.84,19,10.88,24.7,17,1.22,1.31,3.06-.36,2.36-1.82l-3.43-7.12L136,113.28a29.78,29.78,0,0,1,7,10.94l2.9-.79L143,116c-.68-1.76-3.38-1.11-2.89.8l2,8c.48,1.87,3.37,1.08,2.89-.8L143,116l-2.89.8,2.89,7.42c.69,1.78,3.57,1,2.9-.79a33.62,33.62,0,0,0-7.79-12.27,1.51,1.51,0,0,0-2.36,1.81l3.43,7.12,2.35-1.81A114.42,114.42,0,0,0,128,105.77c-4-3.13-8-5.88-13.29-5.4-1.91.17-1.92,3.18,0,3Z" transform="translate(-59.8 -69.84)"/><path d="M123.87,108c2,1.36,3.53,3.61,5.11,5.39l5,5.65c1.29,1.44,3.4-.68,2.12-2.12l-5.62-6.32a30.31,30.31,0,0,0-5.12-5.19c-1.6-1.1-3.1,1.5-1.52,2.59Z" transform="translate(-59.8 -69.84)"/><path d="M86,131.39c4.9.19,10.31,3.56,14.46,5.94a1.5,1.5,0,0,0,1.52-2.59c-4.64-2.65-10.52-6.14-16-6.35-1.93-.07-1.93,2.93,0,3Z" transform="translate(-59.8 -69.84)"/><path d="M140.66,116.1a1.5,1.5,0,0,0,0-3,1.5,1.5,0,0,0,0,3Z" transform="translate(-59.8 -69.84)"/><path d="M79.41,144.43c4.49,4.77,7.73,11,11.73,16.18s8.23,10.14,12.69,14.92c1.32,1.42,3.44-.71,2.12-2.12A196.74,196.74,0,0,1,92,156.83c-3.54-4.75-6.43-10.21-10.49-14.52-1.33-1.41-3.45.71-2.12,2.12Z" transform="translate(-59.8 -69.84)"/><path d="M82.24,145.2c9.23,12.51,16.7,26.75,27.46,38,1.33,1.4,3.45-.72,2.12-2.12C101.26,170,93.9,156,84.83,143.68c-1.13-1.54-3.73,0-2.59,1.52Z" transform="translate(-59.8 -69.84)"/><path d="M90.81,162.37c3.06,8.14,9.23,12.45,16.58,16.61,1.43.8,3.18-1.24,1.82-2.36a97.05,97.05,0,0,1-17.64-19.07l-2.36,1.82C94.74,165.18,100.29,171,106,176.6c1.18,1.15,3.37-.38,2.36-1.82a181.37,181.37,0,0,1-12.78-21.3l-2.35,1.81,12.23,14.59,2.12-2.12a67.13,67.13,0,0,1-10.33-11.3c-2.26-3.17-4.21-6.42-7.06-9.12-1-.94-3.1,0-2.51,1.46A88.85,88.85,0,0,0,109.82,181c1.41,1.31,3.54-.81,2.12-2.12A85.25,85.25,0,0,1,90.6,148l-2.51,1.46c3.29,3.12,5.44,7.11,8.18,10.67a70.22,70.22,0,0,0,9.21,9.75,1.5,1.5,0,0,0,2.12-2.12L95.37,153.17c-1.15-1.36-3.09.38-2.36,1.82a181.37,181.37,0,0,0,12.78,21.3l2.36-1.81c-5.74-5.62-11.29-11.42-16.82-17.24-1.14-1.2-3.35.4-2.35,1.82a100.12,100.12,0,0,0,18.11,19.68l1.82-2.35c-6.54-3.7-12.45-7.48-15.21-14.82-.67-1.79-3.58-1-2.89.8Z" transform="translate(-59.8 -69.84)"/><path d="M96.13,170c-.36,3.73,3.94,6.33,6.38,8.51q5.52,4.9,11.22,9.6c1.48,1.21,3.62-.9,2.13-2.13-2.81-2.31-5.59-4.65-8.33-7.05-1.92-1.67-8.67-6.13-8.4-8.93.18-1.92-2.82-1.91-3,0Z" transform="translate(-59.8 -69.84)"/><path d="M91.06,199c7.37,8,17.43,12,27.42,15.63,1.81.67,2.59-2.23.79-2.89-9.52-3.51-19.06-7.24-26.09-14.86-1.31-1.43-3.43.7-2.12,2.12Z" transform="translate(-59.8 -69.84)"/><path d="M91.83,197.08c5.34,3,9.61,7.62,14.9,10.79a117,117,0,0,0,15.47,7.45c1.78.74,2.56-2.16.8-2.89a106,106,0,0,1-16.19-8c-4.72-3-8.59-7.16-13.46-9.91a1.5,1.5,0,0,0-1.52,2.59Z" transform="translate(-59.8 -69.84)"/><path d="M92,193.94c4.73,3.09,8.48,7.87,13,11.37a102.39,102.39,0,0,0,15.92,10.1c1.71.89,3.23-1.7,1.51-2.59a98.55,98.55,0,0,1-17-10.94c-4.09-3.32-7.52-7.65-11.93-10.54-1.62-1.06-3.12,1.54-1.51,2.6Z" transform="translate(-59.8 -69.84)"/><path d="M93.37,191.65c8.83,6.75,16.67,14.74,26.3,20.42a1.51,1.51,0,0,0,1.82-2.36l-.75-.85c-1.27-1.45-3.38.68-2.12,2.12l.74.85,1.82-2.35c-9.61-5.67-17.47-13.67-26.29-20.42-1.53-1.18-3,1.43-1.52,2.59Z" transform="translate(-59.8 -69.84)"/><path d="M98.58,196.46c.84,2,2.49,2.57,4.31,3.59a51.21,51.21,0,0,1,9.52,7l1.82-2.36c-8.88-4.79-13.31-14.19-20.15-21.2l-1.82,2.36c11.2,7.43,18.75,18.95,29.64,26.78l1.51-2.59a74.35,74.35,0,0,1-18.76-11.52c-1.46-1.23-3.59.85-2.12,2.13,4,3.49,8.12,7,13.11,9,4.59,1.87,9.54,2.29,13.71,5.13l.36-2.74c-3.5.66-6.49-.48-9.65-1.82-1.73-.72-3.27,1.67-1.52,2.59a69.79,69.79,0,0,0,9.25,4.07l.8-2.9a16.29,16.29,0,0,1-13.53-12.43l-2.21,1.69c6.57,3.36,12.7,7.92,18.91,11.91,1.65,1.06,3-1.48,1.51-2.59a162.52,162.52,0,0,1-20.46-17.68L111,197.23c5.91,3.47,10.43,8.6,15.64,13,1.45,1.23,3.52-.74,2.12-2.12l-19.31-19-2.12,2.12,18.1,16.65a1.5,1.5,0,0,0,2.12-2.12c-7.26-8.57-14.49-17.16-21.22-26.16L104,181.33q7.35,7.46,14.22,15.35c1.11,1.28,3.3-.4,2.36-1.82q-8.36-12.48-16-25.4L101.92,171l14,18.52c1.14,1.5,3.71.09,2.59-1.52l-14.89-21.3-2.35,1.81a225.33,225.33,0,0,1,14.81,17.41l2.35-1.81c-3.15-2.82-6.3-6.65-10.15-8.47a1.51,1.51,0,0,0-2,2c6.87,11.76,15.64,22.16,24.42,32.52,1.25,1.47,3.36-.66,2.12-2.12-8.62-10.17-17.21-20.37-23.95-31.92l-2.05,2.06c3.49,1.65,6.67,5.43,9.54,8,1.19,1.06,3.45-.39,2.36-1.82a232.28,232.28,0,0,0-15.28-18c-1.15-1.21-3.35.4-2.36,1.82L116,189.5l2.59-1.52-14-18.52c-1.13-1.49-3.61-.19-2.59,1.52q7.68,12.9,16,25.4l2.35-1.82q-6.87-7.91-14.21-15.35c-1.16-1.17-3.41.42-2.36,1.82,6.89,9.2,14.27,18,21.69,26.76l2.12-2.12L109.44,189c-1.41-1.3-3.5.76-2.12,2.12l19.31,19.05,2.12-2.12c-5.41-4.53-10.11-9.83-16.25-13.43a1.51,1.51,0,0,0-1.81,2.36,166.37,166.37,0,0,0,21.07,18.15l1.51-2.59c-6.21-4-12.33-8.55-18.9-11.91a1.52,1.52,0,0,0-2.21,1.69,19.28,19.28,0,0,0,15.63,14.54,1.51,1.51,0,0,0,.8-2.9,62.38,62.38,0,0,1-8.53-3.76l-1.52,2.59c4,1.69,7.63,2.94,12,2.12,1.37-.25,1.33-2.08.36-2.74-3.48-2.36-7.31-3.14-11.26-4.35-5.87-1.79-10.38-5.37-15-9.34l-2.12,2.13a77,77,0,0,0,19.37,12,1.5,1.5,0,0,0,1.51-2.59c-10.88-7.83-18.42-19.34-29.63-26.78-1.45-1-3,1.16-1.82,2.35,7.05,7.23,11.58,16.73,20.75,21.67,1.45.78,3.12-1.16,1.82-2.36a57.78,57.78,0,0,0-5.69-4.66c-2-1.44-6.68-3-7.67-5.29-.76-1.77-3.34-.25-2.59,1.51Z" transform="translate(-59.8 -69.84)"/><path d="M115.64,206.74l13.68,5c1.81.66,2.59-2.23.8-2.9-5-1.83-11.05-3.15-15.09-6.68l-1.46,2.5a85.38,85.38,0,0,1,20.54,8.55c1.72,1,3-1.46,1.52-2.59q-5.24-3.88-10.21-8.07l-1.82,2.36,9.88,6.5c1.44.95,3-1.17,1.82-2.35-5.83-5.77-11.61-11.57-16.89-17.86l-2.12,2.12,18.85,18.49c1.17,1.14,3.42-.42,2.36-1.82-5.6-7.44-11.16-14.89-16.23-22.71l-2.36,1.82q9,9.76,17.6,19.89l1.82-2.35a220.09,220.09,0,0,1-23.59-20.28c-1.42-1.39-3.27.65-2.12,2.13a143.56,143.56,0,0,0,17.75,19.69c1.22,1.09,3.29-.3,2.35-1.82l-16.27-26.27-2,2c7.43,4.78,13.68,12.77,19.58,19.27l1.82-2.36A155.52,155.52,0,0,1,118,184.24l-1.82,2.36c7.34,5.53,13.44,12.34,19.49,19.21,1,1.08,2.42.1,2.56-1.07l0-.34-1.9,1.45c3.09,1.17,6.79,5.6,9.22,7.79l1.81-2.35c-2.69-1.87-5.33-3.81-7.87-5.87-2.28-1.86-6.09-4.21-6.42-7.42l-2.25,1.29a50.76,50.76,0,0,1,10.46,8.76l2.12-2.13A124,124,0,0,1,132.66,195l-1.81,2.36a81.71,81.71,0,0,1,9.21,7.5l2.12-2.12-8.3-7.25-1.82,2.36a45.72,45.72,0,0,1,10.34,9.63l2.12-2.12c-4.05-5.05-9.13-9.2-12.35-14.89L129.58,192l7,9.43,2.36-1.82c-3-2.58-5.86-5.26-8.64-8.07-1.17-1.19-3.29.36-2.35,1.81l5.86,9.12,2.59-1.51q-6-8.12-12-16.26L122,186.49a77,77,0,0,1,8.79,8c1.33,1.41,3.42-.7,2.13-2.12q-3.32-3.65-6.34-7.52L124.45,187a27.2,27.2,0,0,1,4.18,4.06l1.82-2.35a35.38,35.38,0,0,1-9.34-9.08c-1.1-1.55-3.68-.09-2.59,1.52L125,190.6l2.05-2.06a58.18,58.18,0,0,1-10.62-10.18c-1.07-1.31-3.33.42-2.36,1.81l4.86,6.94,2.36-1.82A53.11,53.11,0,0,1,110,172.19L107.67,174q4.83,4.81,9.46,9.83l2.12-2.12a89.2,89.2,0,0,1-7.77-9.57L109.12,174q6.36,5.82,12.45,11.91a1.5,1.5,0,0,0,2.12-2.12,68.73,68.73,0,0,1-5.22-6.2l-2,2.05a40.54,40.54,0,0,1,6.73,6.49l2.12-2.12c-3.71-4.13-7.38-8.31-11.15-12.39-3.24-3.5-7.1-5.77-10.68-8.86a1.51,1.51,0,0,0-2.36,1.82,63.06,63.06,0,0,0,7.28,10.18c1,1.16,2.89-.07,2.51-1.45a25.33,25.33,0,0,0-2-5l-2.59,1.52,2,2.94,2.59-1.52-8.5-11.05a1.51,1.51,0,0,0-2.79.76c-.38,6.49-.82,17.86,4.19,22.89a1.52,1.52,0,0,0,2.56-1.06q.38-4.62.57-9.24l-3,.4a44.83,44.83,0,0,0,4.08,9.14,1.5,1.5,0,0,0,2.59-1.51,41.61,41.61,0,0,1-3.77-8.43,1.51,1.51,0,0,0-3,.4q-.19,4.62-.57,9.24l2.56-1.07c-2.4-2.4-2.86-8.17-3.19-11.33a58.22,58.22,0,0,1-.12-9.43l-2.8.75,8.5,11.06c1.14,1.48,3.7.12,2.59-1.52l-2-2.94a1.5,1.5,0,0,0-2.59,1.52,14.44,14.44,0,0,1,1.65,4.27l2.51-1.46a59.54,59.54,0,0,1-6.81-9.57l-2.35,1.81c3.55,3.06,7.46,5.39,10.68,8.86,3.77,4.08,7.44,8.26,11.15,12.39,1.31,1.46,3.34-.65,2.12-2.12a43.19,43.19,0,0,0-7.34-7c-1.18-.89-2.93.87-2.05,2a75.44,75.44,0,0,0,5.69,6.81l2.12-2.12q-6.09-6.09-12.44-11.91c-1.2-1.09-3.39.36-2.36,1.82a95.6,95.6,0,0,0,8.24,10.17c1.31,1.42,3.42-.7,2.12-2.12q-4.64-5-9.46-9.83a1.5,1.5,0,0,0-2.35,1.81,55.6,55.6,0,0,0,11.68,13.71c1.21,1,3.41-.32,2.36-1.82l-4.86-6.93-2.35,1.82a60.61,60.61,0,0,0,11.23,10.65c1.21.89,2.87-.85,2-2l-6.44-9.44-2.59,1.52a40,40,0,0,0,10.41,10.15c1.51,1,2.84-1.13,1.82-2.36a26.76,26.76,0,0,0-4.18-4.06,1.5,1.5,0,0,0-2.12,2.12q3,3.88,6.33,7.52l2.13-2.12a75.26,75.26,0,0,0-8.8-8c-1.2-.94-3.46.31-2.35,1.81q6,8.16,12,16.26c1.13,1.51,3.66.15,2.59-1.51l-5.86-9.12-2.36,1.82c2.78,2.81,5.64,5.49,8.63,8.07,1.2,1,3.44-.36,2.36-1.82l-7-9.43c-1.12-1.51-3.56-.2-2.59,1.52,3.35,5.92,8.61,10.23,12.82,15.49,1.21,1.51,3.31-.63,2.12-2.12a48.45,48.45,0,0,0-11-10.1c-1.4-1-3.1,1.23-1.81,2.35l8.3,7.25c1.44,1.26,3.54-.79,2.12-2.12a87.21,87.21,0,0,0-9.82-8c-1.47-1-2.88,1.14-1.82,2.35a124.13,124.13,0,0,0,10.81,11,1.5,1.5,0,0,0,2.12-2.13,53.48,53.48,0,0,0-11.07-9.22,1.51,1.51,0,0,0-2.26,1.3c.72,7,10.42,12.17,15.78,15.88,1.4,1,3.07-1.22,1.82-2.36-3-2.73-6.69-7.11-10.54-8.56-1-.39-1.79.57-1.9,1.44l0,.34,2.56-1.06c-6.23-7.06-12.54-14-20.09-19.67-1.38-1-3,1.19-1.82,2.35a160.74,160.74,0,0,0,18.37,15.3c1.44,1,2.91-1.15,1.82-2.35-6.15-6.78-12.43-14.76-20.19-19.74a1.51,1.51,0,0,0-2,2.06l16.27,26.27,2.36-1.82a143.06,143.06,0,0,1-17.75-19.7l-2.12,2.13a224.54,224.54,0,0,0,24.2,20.74c1.45,1.07,2.84-1.15,1.81-2.36Q130,196.77,121,187a1.5,1.5,0,0,0-2.35,1.82c5.07,7.81,10.63,15.27,16.23,22.7l2.36-1.82-18.86-18.48c-1.4-1.37-3.35.67-2.12,2.12,5.28,6.29,11.06,12.09,16.89,17.86l1.82-2.36-9.89-6.5c-1.4-.92-3.13,1.25-1.81,2.36q5.28,4.43,10.81,8.53l1.52-2.59a88.59,88.59,0,0,0-21.26-8.85c-1.38-.37-2.62,1.49-1.46,2.51,4.49,3.93,10.92,5.42,16.41,7.46l.8-2.9-13.69-5c-1.81-.67-2.59,2.23-.79,2.89Z" transform="translate(-59.8 -69.84)"/><path d="M214.64,195.91a1.5,1.5,0,0,0,0-3,1.5,1.5,0,0,0,0,3Z" transform="translate(-59.8 -69.84)"/><path d="M222.28,195.58a1.5,1.5,0,0,0,0-3,1.5,1.5,0,0,0,0,3Z" transform="translate(-59.8 -69.84)"/><path d="M193,93.32l9.27.06-1.5-1.5A633.63,633.63,0,0,0,198.56,187c.1,1.92,3.1,1.93,3,0a633.63,633.63,0,0,1,2.18-95.14,1.52,1.52,0,0,0-1.5-1.5L193,90.32a1.5,1.5,0,0,0,0,3Z" transform="translate(-59.8 -69.84)"/><path d="M201.17,143l-1.69.48,1.69,2.2,30.87-40a1.52,1.52,0,0,0-.53-2l-13.28-8.41A1.52,1.52,0,0,0,216,96a276.58,276.58,0,0,1-17.12,45.73c-.82,1.73,1.76,3.26,2.6,1.51a282.84,282.84,0,0,0,17.42-46.44l-2.21.89L230,106.14l-.54-2-30.87,40c-.83,1.08.54,2.53,1.69,2.2l1.7-.48a1.5,1.5,0,0,0-.8-2.89Z" transform="translate(-59.8 -69.84)"/><path d="M199.58,135.17c-.44,5.87,4.54,11,7.61,15.59l12.53,18.67c1.07,1.59,3.67.09,2.59-1.52L212,152.49c-3.09-4.6-9.81-11.56-9.38-17.32.15-1.93-2.85-1.92-3,0Z" transform="translate(-59.8 -69.84)"/><path d="M199.85,135.3q11.25,14.88,23.07,29.29c1.22,1.49,3.33-.64,2.12-2.12q-11.58-14.11-22.6-28.68c-1.15-1.52-3.76,0-2.59,1.51Z" transform="translate(-59.8 -69.84)"/><path d="M202.3,142.42c6.66,6.54,11.43,15.46,16.64,23.15,1.08,1.59,3.68.09,2.59-1.52-5.37-7.91-10.24-17-17.1-23.75-1.38-1.35-3.51.77-2.13,2.12Z" transform="translate(-59.8 -69.84)"/><path d="M223,166.51a13.58,13.58,0,0,0-4.25-7.35c-1-.92-3,0-2.51,1.46a13.16,13.16,0,0,0,5.22,6.79,1.53,1.53,0,0,0,1.82-.23,4.94,4.94,0,0,0,1.42-2.42,1.51,1.51,0,0,0-2.9-.8,1.94,1.94,0,0,1-.64,1.09l1.82-.23a9.81,9.81,0,0,1-3.85-5l-2.51,1.46a10.74,10.74,0,0,1,3.48,6c.39,1.89,3.29,1.09,2.9-.8Z" transform="translate(-59.8 -69.84)"/><path d="M202.61,137.25q7.78-10.32,15.18-20.91c1.11-1.6-1.46-3-2.59-1.52-5.18,7-10.4,14-16.1,20.6l2.36,1.82a253.69,253.69,0,0,1,16.26-20l-2.36-1.81Q208.9,125,201.71,134l2.35,1.82a111.67,111.67,0,0,1,7.47-10.94L209.18,123a68.58,68.58,0,0,1-5.26,9c-1,1.39,1.24,3.11,2.35,1.82l9.26-10.7c1.26-1.45-.83-3.58-2.12-2.13q-6.1,6.9-11.79,14.14L204,137l10.29-16-2.6-1.52a80.48,80.48,0,0,1-6.78,11.64l2.74.36c-.44-3.29,3.08-8.13,4.47-11l4.71-9.65-2.74-1.15a109.89,109.89,0,0,1-3.56,13c-.51,1.51,1.47,2.38,2.51,1.46a70.23,70.23,0,0,0,9.48-10.32l-2.59-1.52a14,14,0,0,1-3.55,3.94l2.5,1.46q2-6.39,4.21-12.72a1.51,1.51,0,0,0-2.51-1.46,55.47,55.47,0,0,0-7.34,9.32L216,114a85.43,85.43,0,0,1,4.16-13.57c.62-1.57-2-2.7-2.75-1.16A34.39,34.39,0,0,0,215,106a1.58,1.58,0,0,0,.69,1.7c1.28,1,2.93,1.74,4.22.33.26-.28.41-1,.59-1.18a3.76,3.76,0,0,0,0-1.11q3.27-1.23,4.73,1.21l1.81-2.36a47.69,47.69,0,0,1-5-2.78l-1.51,2.59,1.89,1.63,1.46-2.5-2.94-3.33-2.2,1.7c3.66,2.23.24,7.12-1.66,9.44-1.67,2-3.39,4-5.12,6l2.35,1.82a73.71,73.71,0,0,1,7.85-9.33l-2.51-1.46a18.7,18.7,0,0,1-2.26,6.63c-1,1.72,1.47,3,2.59,1.51l6.84-9.4L224.05,106a21.39,21.39,0,0,1-4.42,7c-1.31,1.41.81,3.54,2.12,2.12a25.74,25.74,0,0,0,5.2-8.3c.67-1.7-1.83-2.42-2.75-1.15l-6.84,9.4,2.59,1.51a20.53,20.53,0,0,0,2.56-7.34c.21-1.39-1.36-2.63-2.5-1.46a79,79,0,0,0-8.32,9.93c-1,1.38,1.24,3.1,2.36,1.82,3.24-3.71,8.11-8,10.08-12.57,1.51-3.53-1.08-5.88-3.91-7.61A1.51,1.51,0,0,0,218,101a7.28,7.28,0,0,0,5,5.42c1.55.56,2.3-1.47,1.46-2.51a5.65,5.65,0,0,0-2.51-2.1,1.5,1.5,0,0,0-1.51,2.59,47.69,47.69,0,0,0,5,2.78,1.51,1.51,0,0,0,1.82-2.35c-1.85-2.18-4.43-4.55-7.49-3.23a4.14,4.14,0,0,0-2,1.69,10.86,10.86,0,0,0-.47,1.16c-.53,1.2.71,1.31-.16.66l.68,1.69a29.68,29.68,0,0,1,2.06-6l-2.74-1.15a85.39,85.39,0,0,0-4.15,13.57,1.51,1.51,0,0,0,2.74,1.16,52.13,52.13,0,0,1,6.87-8.72l-2.51-1.46c-1.44,4.23-2.84,8.46-4.2,12.72-.5,1.57,1.44,2.31,2.51,1.46a17.24,17.24,0,0,0,4-4.54c1-1.68-1.46-3-2.59-1.52a66.36,66.36,0,0,1-9,9.72l2.51,1.46a110.53,110.53,0,0,0,3.55-13c.33-1.56-1.95-2.77-2.74-1.15l-6.85,14c-1.49,3.06-3.09,5.49-2.63,8.91.19,1.41,2.1,1.28,2.74.36A82,82,0,0,0,214.26,121a1.51,1.51,0,0,0-2.6-1.52l-10.28,16c-.9,1.41,1.29,3.17,2.36,1.82q5.7-7.25,11.79-14.13l-2.12-2.13-9.26,10.71,2.36,1.82a68.69,68.69,0,0,0,5.26-9.06c.68-1.41-1.24-3.25-2.36-1.81a118.57,118.57,0,0,0-7.94,11.54c-.85,1.42,1.27,3.18,2.36,1.82q7.42-9.32,14.12-19.18c1-1.4-1.21-3.08-2.35-1.82a258.45,258.45,0,0,0-16.73,20.63c-1,1.37,1.24,3.1,2.35,1.82,5.87-6.81,11.23-14,16.57-21.21l-2.59-1.52q-7.39,10.61-15.18,20.92c-1.16,1.54,1.44,3,2.59,1.51Z" transform="translate(-59.8 -69.84)"/><path d="M199.38,144.62a97.75,97.75,0,0,1,23.22,36.2c.65,1.8,3.55,1,2.89-.8a101.12,101.12,0,0,0-24-37.52,1.5,1.5,0,0,0-2.12,2.12Z" transform="translate(-59.8 -69.84)"/><path d="M225,183.87q5.88-.15,11.76.1c1.93.09,1.92-2.91,0-3q-5.88-.25-11.76-.1c-1.93,0-1.94,3,0,3Z" transform="translate(-59.8 -69.84)"/><path d="M224,165.14a1.5,1.5,0,0,0,0-3,1.5,1.5,0,0,0,0,3Z" transform="translate(-59.8 -69.84)"/><path d="M223.1,165.55l14.62,17.64c1.24,1.5,3.32-.63,2.12-2.12l-.6-.74c-1.21-1.5-3.32.63-2.12,2.12l.6.74,2.12-2.12-14.62-17.65c-1.23-1.48-3.34.65-2.12,2.13Z" transform="translate(-59.8 -69.84)"/><path d="M221.48,169.16c-.09,4.3,2.48,7.6,5.19,10.68a1.51,1.51,0,0,0,2.56-1.06c0-1.65-.85-2.57-1.67-3.95a22.71,22.71,0,0,1-2.25-5.44l-2.5,1.46a70.14,70.14,0,0,1,5,6.15,1.5,1.5,0,0,0,2.59-1.51l-4.27-8-2.36,1.82a33.59,33.59,0,0,1,5.4,7.41c1,1.9,2.06,3.65,4.05,4.65l1.16-2.74-4.21-.81c-.92-.18-3.11-.19-3.58-1.28-.6-1.41-2.82-.64-2.79.76.11,4.94,4.82,6.72,9.11,6.49,1.92-.11,1.93-3.11,0-3-2.47.13-6-.23-6.11-3.49l-2.8.76c1.3,3,6.92,2.95,9.58,3.46,1.56.3,2.77-1.93,1.16-2.74-2.22-1.11-3.06-3.9-4.32-5.89a35.56,35.56,0,0,0-4.53-5.7,1.5,1.5,0,0,0-2.35,1.82L227.8,177l2.59-1.51a77.17,77.17,0,0,0-5.46-6.76,1.51,1.51,0,0,0-2.51,1.46,27.93,27.93,0,0,0,1.51,4.16c.58,1.25,2.28,3.09,2.3,4.43l2.56-1.06c-2.17-2.47-4.39-5.1-4.31-8.56,0-1.93-3-1.93-3,0Z" transform="translate(-59.8 -69.84)"/><path d="M235.06,182.65a1.5,1.5,0,0,0,0-3,1.5,1.5,0,0,0,0,3Z" transform="translate(-59.8 -69.84)"/><path d="M230,178.81a1.5,1.5,0,0,0,0-3,1.5,1.5,0,0,0,0,3Z" transform="translate(-59.8 -69.84)"/><path d="M224.51,183.37a1.5,1.5,0,0,0,0-3,1.5,1.5,0,0,0,0,3Z" transform="translate(-59.8 -69.84)"/><path d="M224.75,183.13a1.5,1.5,0,0,0,0-3,1.5,1.5,0,0,0,0,3Z" transform="translate(-59.8 -69.84)"/><path d="M224.27,182.65a1.5,1.5,0,0,0,0-3,1.5,1.5,0,0,0,0,3Z" transform="translate(-59.8 -69.84)"/><path d="M226.91,106.36a1.5,1.5,0,0,0,0-3,1.5,1.5,0,0,0,0,3Z" transform="translate(-59.8 -69.84)"/><path d="M227.63,107.56a1.5,1.5,0,0,0,0-3,1.5,1.5,0,0,0,0,3Z" transform="translate(-59.8 -69.84)"/><path d="M227.63,108a1.5,1.5,0,0,0,0-3,1.5,1.5,0,0,0,0,3Z" transform="translate(-59.8 -69.84)"/><path d="M228.34,106.12a1.5,1.5,0,0,0,0-3,1.5,1.5,0,0,0,0,3Z" transform="translate(-59.8 -69.84)"/><path d="M215.87,122.68a1.5,1.5,0,0,0,0-3,1.5,1.5,0,0,0,0,3Z" transform="translate(-59.8 -69.84)"/><path d="M206.51,129.33a1.5,1.5,0,0,0,0-3,1.5,1.5,0,0,0,0,3Z" transform="translate(-59.8 -69.84)"/><path d="M206.91,128.73a1.5,1.5,0,0,0,0-3,1.5,1.5,0,0,0,0,3Z" transform="translate(-59.8 -69.84)"/><path d="M206,130.22a1.5,1.5,0,0,0,0-3,1.5,1.5,0,0,0,0,3Z" transform="translate(-59.8 -69.84)"/><path d="M206.31,129.83a1.5,1.5,0,0,0,0-3,1.5,1.5,0,0,0,0,3Z" transform="translate(-59.8 -69.84)"/><path d="M206.41,129.63a1.5,1.5,0,0,0,0-3,1.5,1.5,0,0,0,0,3Z" transform="translate(-59.8 -69.84)"/><path d="M192.44,93.25q0,9.51,1,19l2.26-1.3-.32-.24c-1.55-1.15-3,1.45-1.52,2.59l.32.24a1.51,1.51,0,0,0,2.26-1.29q-1-9.47-1-19a1.5,1.5,0,0,0-3,0Z" transform="translate(-59.8 -69.84)"/><path d="M194.89,93.6q.17,8.57-.14,17.14c-.06,1.94,2.94,1.93,3,0q.31-8.56.14-17.14c0-1.93-3-1.94-3,0Z" transform="translate(-59.8 -69.84)"/><path d="M197.52,93.42a105,105,0,0,1-1.32,20.11c-.31,1.89,2.58,2.7,2.89.79a109.12,109.12,0,0,0,1.43-20.9c-.05-1.93-3.05-1.93-3,0Z" transform="translate(-59.8 -69.84)"/><path d="M192.24,111.45a165.39,165.39,0,0,1-.54,21.35c-.17,1.93,2.83,1.91,3,0a165.39,165.39,0,0,0,.54-21.35c-.08-1.93-3.08-1.94-3,0Z" transform="translate(-59.8 -69.84)"/><path d="M194.39,112v20.3a1.5,1.5,0,0,0,3,0V112a1.5,1.5,0,0,0-3,0Z" transform="translate(-59.8 -69.84)"/><path d="M196.67,113.9c1.1,12-2.72,23.7-2.56,35.7,0,1.92,3,1.93,3,0-.16-12,3.66-23.68,2.56-35.7-.17-1.91-3.17-1.93-3,0Z" transform="translate(-59.8 -69.84)"/><path d="M193,131.22v28.52a1.5,1.5,0,0,0,3,0V131.22a1.5,1.5,0,0,0-3,0Z" transform="translate(-59.8 -69.84)"/><path d="M195.43,139.27a266.55,266.55,0,0,1-1.28,31.84c-.19,1.92,2.81,1.9,3,0a266.55,266.55,0,0,0,1.28-31.84c0-1.93-3-1.94-3,0Z" transform="translate(-59.8 -69.84)"/><path d="M192.37,161.67a218.25,218.25,0,0,0,.54,26.08c.15,1.91,3.15,1.92,3,0a218.25,218.25,0,0,1-.54-26.08c.07-1.93-2.93-1.93-3,0Z" transform="translate(-59.8 -69.84)"/><path d="M195.34,164.47q-.42,11.82.29,23.63c.11,1.92,3.12,1.93,3,0q-.7-11.82-.29-23.63c.07-1.93-2.93-1.93-3,0Z" transform="translate(-59.8 -69.84)"/><path d="M206.31,136.13c0,.15.05,0,.05,0l.13-.2.07-.08a1.55,1.55,0,0,0,0-2.12,1.51,1.51,0,0,0-2.13,0,4.14,4.14,0,0,0-1.12,2.45,1.51,1.51,0,0,0,1.5,1.5,1.54,1.54,0,0,0,1.5-1.5Z" transform="translate(-59.8 -69.84)"/><path d="M200,95.46a1.5,1.5,0,0,0,0-3,1.5,1.5,0,0,0,0,3Z" transform="translate(-59.8 -69.84)"/><path d="M226.31,110.87a1.5,1.5,0,0,0,0-3,1.5,1.5,0,0,0,0,3Z" transform="translate(-59.8 -69.84)"/><path d="M226.31,109.74a1.5,1.5,0,0,0,0-3,1.5,1.5,0,0,0,0,3Z" transform="translate(-59.8 -69.84)"/><path d="M155,140.18a246.35,246.35,0,0,1,35.73-49.4c1.31-1.41-.8-3.53-2.12-2.12a249.45,249.45,0,0,0-36.2,50c-.93,1.69,1.66,3.2,2.59,1.51Z" transform="translate(-59.8 -69.84)"/><path d="M154.57,136.68A195.63,195.63,0,0,1,188,88.14h-2.12a18.47,18.47,0,0,0,7.38,5c1.8.7,2.58-2.2.79-2.89A15.16,15.16,0,0,1,188,86a1.51,1.51,0,0,0-2.12,0A198.31,198.31,0,0,0,152,135.16c-.84,1.73,1.74,3.25,2.59,1.52Z" transform="translate(-59.8 -69.84)"/><path d="M166.08,120c4.91-9.79,14-15.94,19.69-25.28.93-1.56-1.1-2.84-2.36-1.82A63.35,63.35,0,0,0,171.26,106c-1,1.4,1.21,3.06,2.36,1.82,4.95-5.38,8.38-12.24,14.85-16A1.5,1.5,0,0,0,187,89.21c-6.74,4-10.29,10.9-15.45,16.5l2.35,1.82a60.64,60.64,0,0,1,11.68-12.47l-2.35-1.82c-5.64,9.35-14.76,15.45-19.69,25.29-.87,1.72,1.72,3.24,2.59,1.51Z" transform="translate(-59.8 -69.84)"/><path d="M188.13,87.73a22.79,22.79,0,0,1,13.81,3.62c1.64,1,3.14-1.56,1.52-2.6a25.78,25.78,0,0,0-15.33-4c-1.92.11-1.93,3.11,0,3Z" transform="translate(-59.8 -69.84)"/><path d="M189.61,89.35a11,11,0,0,1,7.28,2.59L198,89.38a26.93,26.93,0,0,1-6-.87l-.4,2.94a27.92,27.92,0,0,1,7,.84c1.88.47,2.67-2.42.8-2.89a31.47,31.47,0,0,0-7.79-1,1.51,1.51,0,0,0-.4,3,30,30,0,0,0,6.85,1A1.51,1.51,0,0,0,199,89.82a14.23,14.23,0,0,0-9.4-3.47,1.5,1.5,0,0,0,0,3Z" transform="translate(-59.8 -69.84)"/><path d="M113.23,225.19H103.06l.4,2.95q12.56-4.86,24.63-10.83c1.73-.86.21-3.45-1.51-2.59q-11.73,5.81-23.92,10.52c-1.5.58-1.4,3,.4,3h10.17a1.5,1.5,0,0,0,0-3Z" transform="translate(-59.8 -69.84)"/><path d="M111.3,227.31a79,79,0,0,0,19.58-14.48c1.36-1.37-.76-3.5-2.12-2.12a76.68,76.68,0,0,1-19,14c-1.71.89-.2,3.48,1.51,2.59Z" transform="translate(-59.8 -69.84)"/><path d="M116.17,215.53a108.84,108.84,0,0,1,52.35,73.84c.36,1.9,3.25,1.1,2.9-.79a111.78,111.78,0,0,0-53.74-75.64,1.5,1.5,0,0,0-1.51,2.59Z" transform="translate(-59.8 -69.84)"/></svg>